<svg width="172" height="116" viewBox="0 0 172 116" fill="none" xmlns="http://www.w3.org/2000/svg">
<path d="M70.5256 115.417C69.8627 115.298 69.1445 115.14 68.5782 114.968C63.2 113.506 58.3223 110.708 54.4409 106.858C50.5595 103.009 47.8127 98.2448 46.4798 93.0508C45.1665 93.131 43.8478 93.0466 42.5573 92.7998C39.374 92.2159 36.5204 90.5469 34.5264 88.1026C32.5324 85.6583 31.5335 82.6049 31.7153 79.5094C24.5747 77.9373 16.4674 75.6517 10.0312 70.7636C1.74429 64.4223 -3.35216 52.2681 2.55917 42.7957C6.27447 36.8507 13.6084 33.1384 22.3511 32.8873C25.5978 32.8102 28.8428 33.0984 32.0191 33.7461C33.1241 33.9707 34.229 34.2085 35.3201 34.4727C35.8854 32.1587 37.2634 30.1002 39.224 28.6408C41.1846 27.1814 43.6092 26.4093 46.0931 26.4535C46.2665 22.6711 47.2684 18.9657 49.0337 15.5771C50.7991 12.1885 53.2886 9.19224 56.3412 6.78221C63.8271 0.969323 74.5034 -1.28977 84.9034 0.718317C85.7183 0.87685 86.547 1.07501 87.3481 1.28639C94.4886 3.14915 102.762 7.24459 108.065 13.6256C108.411 13.3217 108.797 13.0046 109.226 12.6876C111.83 10.7659 114.873 9.46202 118.106 8.88278C120.641 8.45569 123.237 8.49153 125.758 8.98845C129.826 9.76637 133.558 11.6894 136.476 14.5107C140.923 19.1624 143.266 25.3077 142.995 31.6059C142.934 35.0616 142.47 38.5001 141.614 41.8577C144.201 42.3479 146.636 43.3981 148.733 44.9278C150.83 46.4575 152.534 48.426 153.712 50.6827C155.472 54.3559 155.7 58.5333 154.348 62.3614C157.791 63.2453 160.973 64.8803 163.645 67.138C166.317 69.3958 168.406 72.2149 169.748 75.3743C173.283 84.1201 170.562 94.6097 162.98 101.479C156.392 107.464 146.406 110.463 136.407 109.512C135.025 109.38 133.713 109.182 132.36 108.917C126.713 107.768 121.325 105.665 116.449 102.708C114.548 104.966 111.904 106.542 108.947 107.18C105.991 107.819 102.896 107.481 100.165 106.222C96.4555 110.047 91.7843 112.899 86.5963 114.509C81.4082 116.118 75.8758 116.431 70.5256 115.417Z" fill="#231244"/>
<path d="M158.113 97.2966C152.217 102.728 143.56 104.997 135.398 104.236C127.207 103.251 119.478 100.067 113.109 95.0533C112.914 96.6483 112.229 98.1526 111.14 99.376C110.05 100.599 108.605 101.487 106.987 101.926C105.37 102.366 103.652 102.337 102.051 101.845C100.45 101.352 99.0375 100.418 97.9928 99.1594C95.0242 103.754 90.5731 107.305 85.3089 109.277C80.0447 111.249 74.2521 111.537 68.8022 110.096C63.3523 108.655 58.5398 105.564 55.0883 101.287C51.6369 97.0108 49.7332 91.7802 49.6635 86.382C48.0266 87.5017 46.0377 88.0532 44.0272 87.9447C42.0166 87.8363 40.1054 87.0744 38.6111 85.7858C37.1168 84.4971 36.1292 82.7592 35.8125 80.8606C35.4958 78.9621 35.8689 77.0173 36.87 75.3492C28.1716 73.6438 19.2395 71.7678 12.3687 66.4679C5.49785 61.168 1.65019 51.3422 6.12996 44.1664C9.07067 39.3912 14.9384 36.8593 20.7511 36.3739L21.9054 36.3084C28.1029 36.0985 34.1492 37.8563 40.0856 39.588C39.542 38.8819 39.158 38.0757 38.9581 37.2204C38.7582 36.3652 38.7467 35.4796 38.9243 34.6199C39.1019 33.7602 39.4647 32.9451 39.9898 32.2263C40.5148 31.5075 41.1907 30.9008 41.9744 30.4446C42.7581 29.9884 43.6325 29.6927 44.5423 29.5762C45.4521 29.4598 46.3772 29.5251 47.2591 29.7681C48.141 30.0111 48.9604 30.4264 49.6653 30.9877C50.3702 31.549 50.9451 32.244 51.3537 33.0287C48.0282 24.6591 51.4911 14.5709 58.7055 8.87742C65.9199 3.18396 76.2536 1.71469 85.2956 4.08915C93.9803 6.3849 103.668 12.2358 106.691 20.671C106.513 20.1594 108.505 17.7849 108.835 17.2996C109.471 16.3289 110.28 15.472 111.226 14.7676C114.226 12.4606 118.025 11.3149 121.869 11.5579C125.713 11.801 129.321 13.4149 131.976 16.0795C135.672 19.7396 137.143 25.0395 137.088 30.1295C136.794 35.2122 135.819 40.2381 134.188 45.0847C136.18 44.6418 138.255 44.6771 140.229 45.1876C142.203 45.6982 144.013 46.668 145.498 48.0101C146.568 48.9521 147.436 50.0838 148.054 51.3422C149.168 53.7798 149.387 56.505 148.676 59.0764C147.966 61.6479 146.366 63.9149 144.137 65.5103C152.094 63.5688 160.902 68.58 163.802 75.9133C166.701 83.2466 164.008 91.8524 158.113 97.2966Z" fill="white"/>
<path d="M163.825 75.6444C160.926 68.277 152.12 63.2424 144.165 65.193C146.393 63.5902 147.992 61.3126 148.703 58.7291C149.413 56.1457 149.194 53.4078 148.08 50.9589C147.463 49.6946 146.595 48.5577 145.525 47.6113C145.86 49.8171 145.489 52.0686 144.462 54.0678C143.434 56.067 141.797 57.7196 139.768 58.8069C137.74 59.8942 135.415 60.365 133.101 60.1568C130.788 59.9486 128.594 59.0713 126.812 57.641C126.981 58.4913 126.845 59.3715 126.427 60.1384C126.009 60.9054 125.332 61.514 124.507 61.8652C123.683 62.2165 122.758 62.2898 121.884 62.0732C121.011 61.8566 120.239 61.3629 119.695 60.6724C120.592 64.7533 119.761 69.0087 117.387 72.5024C115.013 75.9961 111.289 78.4419 107.034 79.3018C102.78 80.1617 98.3442 79.3652 94.7022 77.0876C91.0602 74.8099 88.5105 71.2377 87.6141 67.1567C87.4331 67.8752 87.0054 68.5145 86.3998 68.9717C85.7943 69.4289 85.0461 69.6774 84.2755 69.6774C83.5049 69.6774 82.7567 69.4289 82.1512 68.9717C81.5456 68.5145 81.118 67.8752 80.9369 67.1567C80.6644 69.4919 79.6514 71.6907 78.0347 73.4561C76.418 75.2214 74.2755 76.4682 71.8965 77.0283C69.5056 77.5184 67.0284 77.4662 64.6623 76.8759C62.2961 76.2855 60.1063 75.1734 58.2673 73.628C54.6063 70.4708 52.1054 66.2645 51.1366 61.6344C50.3241 62.7271 49.188 63.5604 47.8757 64.026C46.5634 64.4916 45.1355 64.5681 43.7774 64.2456C42.4192 63.9231 41.1934 63.2164 40.2591 62.2173C39.3248 61.2182 38.7251 59.9728 38.5378 58.6427C33.2894 59.7102 27.78 60.5142 22.6141 59.1171C17.4482 57.7201 12.7219 53.4894 12.4333 48.4021C12.4392 46.6073 12.8386 44.8337 13.6055 43.1966C14.3724 41.5595 15.4897 40.0954 16.8848 38.8995C18.0722 37.8169 19.365 36.846 20.7456 36C14.9339 36.4876 9.06725 39.0313 6.12706 43.8287C1.64809 51.0907 5.5088 60.9623 12.3646 66.2342C19.2205 71.5061 28.1922 73.4434 36.8204 75.1831C35.8195 76.859 35.4464 78.8129 35.7631 80.7202C36.0797 82.6276 37.0671 84.3737 38.5612 85.6683C40.0552 86.963 41.9661 87.7284 43.9762 87.8373C45.9864 87.9463 47.975 87.3923 49.6116 86.2673C49.6813 91.6906 51.5846 96.9457 55.0354 101.242C58.4863 105.539 63.298 108.644 68.7469 110.092C74.1958 111.539 79.9874 111.251 85.2506 109.269C90.5138 107.288 94.9641 103.721 97.9323 99.1043C98.9768 100.369 100.389 101.308 101.989 101.802C103.59 102.297 105.308 102.326 106.925 101.884C108.543 101.443 109.987 100.551 111.077 99.3218C112.166 98.0928 112.851 96.5815 113.045 94.979C119.413 100.016 127.141 103.215 135.33 104.205C143.491 104.969 152.147 102.689 158.041 97.2328C163.935 91.7764 166.711 82.9987 163.825 75.6444ZM156.695 84.1454C156.02 84.2881 155.319 84.2703 154.653 84.0934C153.988 83.9165 153.377 83.5859 152.875 83.1305C151.903 82.2775 151.178 81.1965 150.773 79.9937C149.839 77.5028 149.963 74.2869 152.394 72.6263C152.547 72.5244 152.719 72.4531 152.901 72.4169C153.083 72.3807 153.27 72.3801 153.452 72.4154C153.835 72.3163 154.238 72.3163 154.62 72.4154C157.368 73.2062 158.989 76.1584 159.25 78.7285C159.443 80.6923 158.907 83.4995 156.695 84.1454Z" fill="#F4F0FF"/>
<path d="M49.3442 74C47.7732 75.5779 46.7238 77.5687 46.3289 79.7204C46.1543 80.7904 46.2234 81.8842 46.5314 82.926C46.8393 83.9677 47.3789 84.9327 48.1126 85.7541C49.1597 86.7513 50.4705 87.4536 51.9029 87.7849C53.3353 88.1163 54.8346 88.0639 56.2384 87.6337C59.0181 86.7558 61.4142 85.0113 63.0475 82.676C61.458 83.508 59.6732 83.9335 57.8639 83.9121C56.0545 83.8906 54.2812 83.4228 52.7134 82.5534C51.2489 81.7241 50.0719 80.4968 49.3301 79.0258C48.6686 77.4101 48.6737 75.6123 49.3442 74Z" fill="#231244"/>
<path d="M97.7238 25.8043C98.1205 23.9824 99.2809 22.3698 100.962 21.3038C102.644 20.2377 104.716 19.8008 106.745 20.0844C108.774 20.368 110.604 21.3502 111.851 22.8255C113.098 24.3007 113.666 26.1548 113.436 28C112.874 26.6488 111.821 25.5102 110.45 24.771C109.067 24.0242 107.532 23.5367 105.937 23.3373C104.464 23.0466 102.939 23.0466 101.466 23.3373C99.9071 23.6801 98.5617 24.5671 97.7238 25.8043Z" fill="#231244"/>
</svg>
