<svg width="97" height="96" viewBox="0 0 97 96" fill="none" xmlns="http://www.w3.org/2000/svg">
<circle cx="49" cy="48" r="45" fill="#F0AD05" stroke="#201A17" stroke-width="6"/>
<path d="M57.6643 75.757C56.0443 76.729 54.0193 76.81 52.0753 76.891C49.8073 76.891 47.4583 76.729 45.4333 75.838C44.2993 75.271 43.3273 74.299 42.8413 73.165C42.5173 72.436 42.3553 71.707 42.1933 70.897C41.7883 67.981 41.8693 64.984 41.8693 61.987C42.0313 53.077 42.1123 44.167 42.7603 35.257C41.2213 35.257 39.6013 35.257 38.0623 35.095C37.0093 35.014 35.8753 34.852 34.9843 34.285C34.2553 33.88 33.6883 33.232 33.3643 32.584C31.7443 29.506 32.6353 23.107 34.8223 20.434C35.7943 19.3 37.4143 18.733 38.8723 18.652C40.4113 18.49 42.0313 18.571 43.6513 18.49C45.1093 18.49 52.8853 18.166 54.2623 18.328C55.5583 18.409 56.9353 18.814 57.8263 19.786C60.0133 21.973 59.4463 30.478 59.4463 33.475C59.5273 37.363 60.3373 60.934 60.4183 64.741C60.4183 66.847 60.3373 68.953 60.0943 71.059C59.9323 72.76 59.2033 74.866 57.6643 75.757Z" fill="#201A17"/>
</svg>
