<svg width="98" height="97" viewBox="0 0 98 97" fill="none" xmlns="http://www.w3.org/2000/svg">
<circle cx="48" cy="48" r="45" transform="matrix(-1 0 0 1 96.7061 0.895752)" fill="#F0AD05" stroke="#201A17" stroke-width="6"/>
<path d="M68.0371 77.6248C67.6051 77.8408 67.1461 77.9758 66.6601 78.0298C66.2281 78.0838 65.7961 78.1378 65.3641 78.1918C65.0941 78.1918 64.6081 78.1648 63.9061 78.1108C63.2041 78.0568 62.4211 77.9758 61.5571 77.8678C60.7471 77.8138 59.9641 77.7598 59.2081 77.7058C58.5061 77.6518 58.0201 77.6248 57.7501 77.6248C55.8601 77.5168 53.9431 77.4358 51.9991 77.3818C50.1091 77.3818 48.2191 77.4088 46.3291 77.4628C45.5191 77.5168 44.3311 77.5708 42.7651 77.6248C41.1991 77.7328 39.5521 77.7868 37.8241 77.7868C36.1501 77.7868 34.5571 77.7058 33.0451 77.5438C31.5871 77.3818 30.5071 77.0848 29.8051 76.6528C29.3731 76.3828 29.0221 76.0318 28.7521 75.5998C28.5361 75.1138 28.3741 74.6278 28.2661 74.1418C28.1041 73.2238 27.9961 72.3328 27.9421 71.4688C27.9421 70.6048 27.9421 69.7138 27.9421 68.7958C27.9961 67.8778 28.0501 66.9868 28.1041 66.1228C28.1581 65.2588 28.3741 64.4488 28.7521 63.6928C29.0221 62.9908 29.4001 62.3698 29.8861 61.8298C30.4261 61.2898 30.9931 60.8038 31.5871 60.3718C32.9911 59.3458 34.3681 58.3468 35.7181 57.3748C37.0681 56.4028 38.4451 55.3768 39.8491 54.2968C41.9011 52.7308 43.9261 51.1107 45.9241 49.4368C47.9221 47.7088 49.8661 45.9538 51.7561 44.1718C52.5121 43.4698 53.2411 42.7138 53.9431 41.9038C54.6451 41.0398 55.1311 40.0948 55.4011 39.0688C55.6711 38.3127 55.8331 37.5567 55.8871 36.8007C55.9411 35.9907 55.8331 35.2077 55.5631 34.4517C55.1311 33.2097 54.3481 32.3187 53.2141 31.7787C52.1341 31.2387 50.9731 31.1847 49.7311 31.6168C48.7051 31.9947 47.7871 32.6157 46.9771 33.4798C46.2211 34.3437 45.5461 35.2347 44.9521 36.1528C44.5201 36.8007 44.1421 37.4758 43.8181 38.1778C43.5481 38.8797 43.1431 39.5277 42.6031 40.1217C41.9551 40.8238 41.1181 41.2288 40.0921 41.3368C39.0121 41.4448 37.9051 41.3908 36.7711 41.1748C35.6911 40.9588 34.6111 40.7158 33.5311 40.4458C33.2611 40.3917 32.9101 40.3107 32.4781 40.2028C32.0461 40.0408 31.5871 39.8787 31.1011 39.7168C30.6151 39.5007 30.1561 39.2848 29.7241 39.0688C29.3461 38.8528 29.0761 38.6638 28.9141 38.5017C28.5361 38.0697 28.3201 37.5298 28.2661 36.8818C28.2661 36.2337 28.3471 35.5587 28.5091 34.8567C28.6711 34.1548 28.9141 33.4798 29.2381 32.8317C29.5621 32.1297 29.8861 31.5357 30.2101 31.0497C31.3981 29.1598 32.8021 27.4048 34.4221 25.7847C36.0421 24.1648 37.7971 22.7878 39.6871 21.6537C41.4151 20.6817 43.2241 19.9257 45.1141 19.3857C47.0581 18.8457 49.0021 18.4947 50.9461 18.3327C52.5121 18.1708 54.1051 18.1168 55.7251 18.1708C57.3451 18.2247 58.9111 18.5217 60.4231 19.0617C61.9891 19.6558 63.4201 20.5468 64.7161 21.7347C66.0121 22.8687 67.1191 24.1378 68.0371 25.5418C69.2251 27.4317 70.0891 29.5377 70.6291 31.8597C71.1691 34.1817 71.3041 36.4768 71.0341 38.7448C70.8181 40.6887 70.3051 42.5787 69.4951 44.4148C68.7391 46.2508 67.8211 47.9788 66.7411 49.5988C65.4991 51.5428 64.1221 53.4058 62.6101 55.1878C61.1521 56.9698 59.6401 58.6978 58.0741 60.3718C58.1821 60.3718 58.3711 60.3718 58.6411 60.3718C58.9651 60.3178 59.3161 60.2638 59.6941 60.2098C60.0721 60.1558 60.3961 60.1288 60.6661 60.1288C60.9901 60.0748 61.2061 60.0478 61.3141 60.0478C62.0701 60.0478 62.8801 60.0748 63.7441 60.1288C64.6621 60.1288 65.4991 60.2368 66.2551 60.4528C67.0651 60.6148 67.7671 60.9118 68.3611 61.3438C69.0091 61.7758 69.4141 62.3428 69.5761 63.0448C69.6301 63.3688 69.6841 63.9628 69.7381 64.8268C69.8461 65.6908 69.9271 66.6358 69.9811 67.6618C70.0351 68.6338 70.0891 69.5788 70.1431 70.4968C70.1971 71.3608 70.2241 71.9548 70.2241 72.2788C70.2781 72.8728 70.2781 73.4938 70.2241 74.1418C70.1701 74.7358 70.0081 75.3028 69.7381 75.8428C69.3061 76.6528 68.7391 77.2468 68.0371 77.6248Z" fill="#201A17"/>
</svg>
