<svg width="97" height="97" viewBox="0 0 97 97" fill="none" xmlns="http://www.w3.org/2000/svg">
<circle cx="49" cy="48.5381" r="45" fill="#F0AD05" stroke="#201A17" stroke-width="6"/>
<path d="M54.7929 77.1861C52.4709 77.7801 50.0949 78.0501 47.6649 77.9961C45.2889 77.9421 42.9399 77.6451 40.6179 77.1051C39.2139 76.7811 37.8099 76.3761 36.4059 75.8901C35.0019 75.3501 33.6789 74.7021 32.4369 73.9461C31.6269 73.4061 30.8709 72.8121 30.1689 72.1641C29.4669 71.4621 28.8729 70.6791 28.3869 69.8151C27.7929 68.8971 27.4689 67.8441 27.4149 66.6561C27.4149 65.4141 27.6309 64.2801 28.0629 63.2541C28.2789 62.7141 28.6029 62.1741 29.0349 61.6341C29.4669 61.0401 29.9529 60.5001 30.4929 60.0141C31.0869 59.5281 31.6809 59.1231 32.2749 58.7991C32.8689 58.4751 33.4629 58.3131 34.0569 58.3131C34.4349 58.3131 34.7859 58.3941 35.1099 58.5561C35.4339 58.6641 35.7579 58.7991 36.0819 58.9611C36.9999 59.5011 37.8369 60.0951 38.5929 60.7431C39.4029 61.3911 40.2669 62.0121 41.1849 62.6061C41.7789 62.9841 42.3999 63.2811 43.0479 63.4971C43.7499 63.7131 44.4519 63.7941 45.1539 63.7401C46.1259 63.6861 47.0979 63.4971 48.0699 63.1731C49.0959 62.7951 50.0139 62.3091 50.8239 61.7151C51.6339 61.0671 52.2819 60.3381 52.7679 59.5281C53.2539 58.6641 53.4969 57.7461 53.4969 56.7741C53.4429 55.4781 53.0109 54.2901 52.2009 53.2101C51.4449 52.1301 50.3919 51.5631 49.0419 51.5091C48.2859 51.5091 47.5299 51.5901 46.7739 51.7521C46.0719 51.8601 45.3429 51.9681 44.5869 52.0761C43.8849 52.1841 43.1559 52.2651 42.3999 52.3191C41.6979 52.3731 40.9959 52.3461 40.2939 52.2381C38.5119 51.9141 37.4589 50.8611 37.1349 49.0791C37.0269 48.5931 36.9999 47.9721 37.0539 47.2161C37.1079 46.4601 37.2159 45.7041 37.3779 44.9481C37.5939 44.1921 37.8369 43.4901 38.1069 42.8421C38.4309 42.1401 38.7819 41.6271 39.1599 41.3031C39.5379 40.9791 39.9699 40.7361 40.4559 40.5741C40.9959 40.4121 41.5089 40.3581 41.9949 40.4121C42.5889 40.4661 43.1559 40.5471 43.6959 40.6551C44.2359 40.7631 44.8029 40.8171 45.3969 40.8171C45.8289 40.8171 46.3959 40.7361 47.0979 40.5741C47.7999 40.4121 48.5019 40.2231 49.2039 40.0071C49.9599 39.7371 50.6349 39.4401 51.2289 39.1161C51.8769 38.7381 52.3629 38.3871 52.6869 38.0631C53.1189 37.5771 53.3889 37.0371 53.4969 36.4431C53.6049 35.8491 53.5779 35.2551 53.4159 34.6611C53.3079 34.0671 53.0919 33.4731 52.7679 32.8791C52.4439 32.2851 52.0659 31.7721 51.6339 31.3401C51.0399 30.7461 50.4459 30.3411 49.8519 30.1251C48.8799 29.8011 47.8539 29.8281 46.7739 30.2061C45.5859 30.4761 44.4519 30.8811 43.3719 31.4211C42.3459 31.9071 41.2929 32.4471 40.2129 33.0411C39.5649 33.4731 38.9169 33.9321 38.2689 34.4181C37.6209 34.8501 36.9189 35.2011 36.1629 35.4711C35.0829 35.8491 34.1109 35.7681 33.2469 35.2281C32.3289 34.6881 31.5999 33.9321 31.0599 32.9601C30.5199 31.9881 29.9799 31.0431 29.4399 30.1251C29.0079 29.3151 28.5759 28.4781 28.1439 27.6141C27.7119 26.6961 27.5499 25.7781 27.6579 24.8601C27.7119 24.0501 28.0629 23.2401 28.7109 22.4301C29.6289 21.3501 30.7359 20.5401 32.0319 20.0001C33.3279 19.4601 34.5969 18.9741 35.8389 18.5421C37.9989 17.7861 40.1859 17.1921 42.3999 16.7601C44.6139 16.3281 46.8549 16.1661 49.1229 16.2741C50.2029 16.3281 51.2829 16.4901 52.3629 16.7601C53.4969 16.9761 54.6039 17.2731 55.6839 17.6511C57.9519 18.4071 59.8959 19.5681 61.5159 21.1341C63.1899 22.7001 64.4589 24.6171 65.3229 26.8851C66.1869 29.0991 66.5379 31.4751 66.3759 34.0131C66.2139 36.4971 65.6469 38.8461 64.6749 41.0601C64.3509 41.8161 63.9189 42.5721 63.3789 43.3281C62.8929 44.0301 62.3529 44.7051 61.7589 45.3531C62.5149 45.8391 63.2169 46.4061 63.8649 47.0541C64.5669 47.7021 65.1339 48.4041 65.5659 49.1601C66.3219 50.4021 66.8889 51.7251 67.2669 53.1291C67.6989 54.4791 67.9419 55.8561 67.9959 57.2601C68.1039 59.3661 67.9149 61.4991 67.4289 63.6591C66.9429 65.7651 66.1599 67.7361 65.0799 69.5721C63.9999 71.4081 62.5149 73.0011 60.6249 74.3511C58.7889 75.6471 56.8449 76.5921 54.7929 77.1861Z" fill="#201A17"/>
</svg>
