<svg width="98" height="97" viewBox="0 0 98 97" fill="none" xmlns="http://www.w3.org/2000/svg">
<circle cx="48" cy="48" r="45" transform="matrix(-1 0 0 1 96.7061 0.895752)" fill="#F0AD05" stroke="#201A17" stroke-width="6"/>
<path d="M62.5743 77.4628C62.4663 77.4628 62.0883 77.4898 61.4403 77.5438C60.8463 77.5978 60.4683 77.6248 60.3063 77.6248C58.8483 77.6248 57.4443 77.4628 56.0943 77.1388C55.5003 76.9768 54.9333 76.7608 54.3933 76.4908C53.8533 76.1668 53.4213 75.7618 53.0973 75.2758C52.7193 74.6818 52.4763 74.0338 52.3683 73.3318C52.3143 72.6298 52.2873 71.9278 52.2873 71.2258C52.3413 69.4978 52.4223 67.7428 52.5303 65.9608C52.6383 64.1788 52.7463 62.3968 52.8543 60.6148C50.4243 61.0468 47.9673 61.4248 45.4833 61.7488C42.9993 62.0188 40.5153 62.1268 38.0313 62.0728C36.9513 62.0188 35.8443 61.9108 34.7103 61.7488C33.5763 61.5868 32.5233 61.2088 31.5513 60.6148C31.0653 60.3448 30.6333 59.9938 30.2553 59.5618C29.9313 59.1298 29.6613 58.6708 29.4453 58.1848C29.0133 57.4288 28.7433 56.6188 28.6353 55.7548C28.5273 54.8908 28.4463 54.0268 28.3923 53.1628C28.2843 51.6508 28.2573 50.1658 28.3113 48.7078C28.4193 47.2497 28.5003 45.7647 28.5543 44.2527C28.5543 44.0908 28.5273 43.6858 28.4733 43.0378C28.4733 42.3358 28.4733 41.9038 28.4733 41.7418C28.4193 39.6897 28.4193 37.6917 28.4733 35.7478C28.5273 33.7498 28.5273 31.7518 28.4733 29.7538C28.4733 29.3217 28.4463 28.7007 28.3923 27.8908C28.3383 27.0267 28.3113 26.1357 28.3113 25.2178C28.3113 24.2458 28.3383 23.3548 28.3923 22.5448C28.5003 21.7347 28.6623 21.1407 28.8783 20.7628C29.2023 20.1687 29.7153 19.7637 30.4173 19.5478C31.1733 19.2777 31.9023 19.0887 32.6043 18.9807C33.3603 18.8187 34.2783 18.7107 35.3583 18.6567C36.4383 18.6027 37.4913 18.6297 38.5173 18.7377C39.5973 18.8457 40.5693 19.0617 41.4333 19.3857C42.3513 19.7097 43.0533 20.1957 43.5393 20.8437C44.0253 21.5997 44.3493 22.7607 44.5113 24.3267C44.6733 25.8928 44.7273 27.5668 44.6733 29.3488C44.6733 31.0768 44.6193 32.7778 44.5113 34.4517C44.4033 36.1257 44.3493 37.3947 44.3493 38.2587C44.3493 38.6908 44.3223 39.3658 44.2683 40.2838C44.2143 41.1478 44.1873 42.0928 44.1873 43.1187C44.1873 44.1447 44.1873 45.1167 44.1873 46.0348C44.2413 46.8988 44.3493 47.5198 44.5113 47.8978C44.7813 48.5458 45.4023 48.9778 46.3743 49.1938C47.3463 49.4098 48.1833 49.5177 48.8853 49.5177C49.6953 49.5177 50.4783 49.3017 51.2343 48.8698C51.9903 48.4378 52.5843 47.8438 53.0163 47.0877C53.1243 46.9257 53.2593 46.6288 53.4213 46.1968C53.6373 45.7648 53.7453 45.4678 53.7453 45.3058C53.6913 42.3358 53.5563 39.3928 53.3403 36.4768C53.1783 33.5068 53.1243 30.5368 53.1783 27.5667C53.2323 26.6487 53.3133 25.7577 53.4213 24.8938C53.5293 24.0297 53.7453 23.1927 54.0693 22.3827C54.6633 20.9247 55.6623 19.8987 57.0663 19.3047C58.3083 18.7648 59.6043 18.5218 60.9543 18.5757C62.3583 18.5757 63.7353 18.7107 65.0853 18.9807C66.0573 19.1967 67.0293 19.5477 68.0013 20.0338C69.0273 20.5198 69.7563 21.2217 70.1883 22.1397C70.7283 23.1658 70.9983 24.3538 70.9983 25.7037C71.0523 26.5137 71.0253 27.3237 70.9173 28.1337C70.8633 28.9437 70.7823 29.7538 70.6743 30.5637C70.3503 33.1557 70.0803 35.7207 69.8643 38.2587C69.6483 40.7427 69.4863 43.2808 69.3783 45.8728C69.2703 49.1128 69.2703 52.3528 69.3783 55.5928C69.5403 58.7788 69.6753 61.9918 69.7833 65.2318C69.8373 66.5278 69.8373 67.8508 69.7833 69.2008C69.7833 70.4968 69.6483 71.7658 69.3783 73.0078C68.9463 75.2758 67.5963 76.6258 65.3283 77.0578C65.1123 77.3278 64.6803 77.4628 64.0323 77.4628C63.4383 77.4628 62.9523 77.4628 62.5743 77.4628Z" fill="#201A17"/>
</svg>
