<svg width="1440" height="270" viewBox="0 0 1440 270" fill="none" xmlns="http://www.w3.org/2000/svg">
<g clip-path="url(#clip0_1_185)">
<g clip-path="url(#clip1_1_185)">
<path d="M1440 273.675V66.2251C1438.12 66.6751 1436.55 67.5751 1435.12 68.3251C1431.6 70.2751 1428.38 72.3751 1424.62 74.2501C1419.3 76.8751 1419.3 76.4251 1416.82 72.9751C1415.02 69.9001 1413.75 66.6751 1412.32 63.5251C1408.5 55.6501 1406.17 47.5501 1403.32 39.4501C1401.97 36.6751 1400.7 29.1751 1393.2 30.6001C1389.75 31.2751 1387.27 33.0751 1383.82 33.7501C1383.15 33.3751 1382.7 32.7751 1382.25 32.3251C1378.72 27.6001 1376.17 26.5501 1368.38 24.3001C1367.4 24.0751 1366.05 24.1501 1365.38 24.6751C1362.97 26.4751 1361.17 28.5001 1359.38 30.4501C1356.75 33.4501 1354.28 36.5251 1352.1 39.6751C1349.32 43.7251 1347.22 47.9251 1343.02 51.6001C1341.97 52.4251 1340.85 53.3251 1339.2 53.6251C1336.05 54.0751 1332.75 53.7001 1329.6 53.7751C1318.05 53.8501 1315.57 54.5251 1310.25 60.4501C1307.85 62.7751 1296.75 73.9501 1292.7 73.8751C1286.32 73.5001 1280.4 71.4751 1273.8 71.7001C1268.03 71.7751 1264.43 74.7001 1261.43 77.1751C1259.55 78.6751 1257.67 80.1001 1255.57 81.4501C1247.85 86.3251 1236.53 88.9501 1225.35 90.3001C1220.1 90.9001 1214.7 90.9001 1209.45 91.4251C1208.7 91.5001 1208.02 91.5751 1207.27 91.5751C1203.52 90.6751 1199.77 89.8501 1196.02 88.9501C1188.22 87.4501 1180.12 86.5501 1172.18 85.3501C1163.85 84.0751 1155.75 82.2751 1147.27 81.2251C1139.32 80.2501 1131.15 79.6501 1123.12 79.1251C1098.9 76.9501 1074.45 77.8501 1050.07 77.6251C1036.88 77.4751 1023.9 76.6501 1010.7 76.5751C1001.62 76.3501 992.475 76.9501 983.55 75.7501C975.6 74.4001 969.9 63.2251 962.175 63.0751C958.275 62.7751 952.95 65.4001 949.575 64.5751H949.65C948.825 64.2751 948.375 63.6751 947.925 63.2251C947.1 62.2501 946.425 61.2001 945.75 60.1501C943.35 56.1001 941.85 51.4501 938.325 47.5501C937.425 46.6501 935.625 46.8751 934.05 47.0251C930.225 47.4001 927.75 49.2751 926.1 51.1501C920.625 57.2251 916.65 63.7501 909.9 69.4501C907.5 71.4001 905.1 73.3501 901.95 74.9251C900.375 75.6001 898.95 76.2751 896.85 76.3501C896.625 76.3501 896.1 76.3501 895.65 76.3501L895.275 76.2751C894.9 76.2001 894.45 76.2001 894.075 76.1251C888.225 74.9251 883.125 72.7501 877.275 71.5501C873.225 70.7251 868.875 70.1251 864.525 70.3501C860.175 70.5001 856.125 71.5501 852.525 72.8251C847.875 74.4001 843.975 76.6501 839.175 78.1501C835.2 79.2751 830.85 79.8751 826.425 79.9501C812.4 80.1751 798.3 79.7251 784.5 78.2251C768.075 76.6501 751.875 74.7001 735.675 72.4501C720.975 70.5751 706.65 68.0251 692.175 65.7001C672.6 62.7751 653.325 59.1751 634.35 55.1251C625.8 53.3251 617.7 50.9251 609.075 49.2751C601.65 47.7751 593.775 46.7251 586.875 44.4751C581.625 42.9751 579.45 39.7501 577.65 36.7501C576.225 34.3501 574.8 31.8001 573.375 29.1751C571.95 26.8501 571.05 24.2251 567.825 22.5001C564.525 21.0001 560.1 22.0501 556.35 21.6751C550.5 21.3751 545.775 11.8501 543.6 8.85011C542.025 6.45011 540.375 3.97511 538.05 1.80011C536.475 0.0751072 532.65 -0.599893 530.55 1.05011C526.95 4.12511 525.675 7.80011 523.8 11.2501C522.6 13.5751 521.4 15.9001 519.975 18.2251C516 24.9751 514.2 23.3251 505.95 27.1501C501 29.8501 500.175 34.2001 498.075 37.7251C497.025 39.7501 495.975 41.7001 494.775 43.6501C493.35 45.7501 492.225 48.2251 489.75 50.1001C485.85 52.2751 475.8 51.3751 470.475 51.5251C465.3 51.6001 460.2 51.9751 455.1 52.4251C450.9 52.7251 446.925 53.0251 444.375 55.2001C440.7 58.3501 439.425 62.1001 437.1 65.6251C430.875 75.9001 423.15 81.8251 404.475 85.3501C393.225 87.7501 381.075 87.0001 369.3 87.1501C353.475 87.2251 337.65 87.1501 321.825 87.3751C314.325 87.3751 306.825 87.8251 299.325 87.6751C294 87.4501 288.75 87.0001 283.425 86.5501C274.5 85.7251 265.575 84.9001 257.025 83.3251C249.225 81.9001 241.425 80.4001 233.55 79.1251C225.675 77.8501 218.1 76.0501 210.225 74.7001C203.325 73.4251 196.05 72.6751 189.675 70.6501C184.575 68.5501 181.95 65.1751 178.725 62.1751C177.15 60.6751 175.575 59.1751 173.1 58.1251C166.95 55.6501 157.95 58.4251 151.425 59.1001C149.475 59.2501 147.075 59.6251 145.575 58.7251C143.175 56.9251 142.05 54.6001 140.625 52.5001C136.8 46.8751 133.725 41.2501 130.875 35.4001C128.55 31.1251 127.65 26.4001 122.7 22.8001C116.175 19.2751 110.1 25.7251 107.325 28.5001C101.25 35.1001 95.3999 41.7751 90.5249 48.6751C87.2999 53.3251 84.825 58.1251 81 62.6251C79.125 64.5751 76.875 67.0501 72.45 67.2001C65.25 67.3501 57.8999 66.0001 50.7749 66.9751C46.4249 67.6501 42.975 69.3751 39.675 70.9501C36.6 72.4501 33.45 73.8751 30.075 75.2251C23.55 77.6251 16.2 79.5751 8.39995 80.0251C5.69995 80.1001 3.07495 79.9501 0.449951 79.8751V273.975H1440V273.675Z" fill="#25749e"/>
<path d="M1440 273.675V114.675C1437 115.125 1434 115.725 1431.07 116.55C1424.77 118.125 1418.47 119.55 1412.17 121.05C1406.4 121.725 1400.47 121.425 1394.62 121.275C1389.22 121.05 1384.2 119.475 1379.1 118.275C1367.47 116.325 1355.77 114.15 1344.37 111.3C1338.22 109.95 1332.15 108.525 1326.22 106.65C1322.32 105.675 1318.35 104.85 1314.22 105.375C1309.35 105.975 1304.7 106.2 1299.67 106.05C1298.47 105.975 1297.27 105.825 1296.07 105.525C1294.35 105 1292.77 104.25 1291.12 103.65C1287.82 102.45 1284.3 101.4 1281.6 99.3751C1277.85 96.4501 1274.32 93.2251 1270.2 90.7501C1266.67 88.9501 1263.15 87.0751 1259.47 85.4251C1257.67 84.7501 1255.8 83.4751 1254.07 82.5751C1251.15 81.2251 1248.67 79.3501 1245.75 77.9251C1245 77.5501 1244.25 77.4751 1243.65 77.7001C1242.6 77.0251 1241.55 76.4251 1240.35 76.0501C1237.87 75.3751 1235.32 75.0751 1232.7 74.9251C1231.42 72.7501 1229.92 70.6501 1228.12 68.7001C1225.42 65.7001 1222.35 63.0001 1219.57 60.0751C1214.85 54.8251 1210.05 49.0501 1202.4 46.8001C1195.95 44.5501 1189.87 41.5501 1183.05 39.9751C1167.45 36.3751 1151.02 35.1001 1134.97 36.6751C1121.4 38.1751 1108.27 41.9251 1095.52 46.1251C1088.17 48.8251 1081.2 52.2751 1074.22 55.6501C1068.22 58.5751 1062.9 62.3251 1057.42 65.8501C1052.92 68.7001 1048.27 71.5501 1044.37 75.0001C1040.25 78.6751 1037.02 82.9501 1033.87 87.2251C1033.35 87.9751 1032.52 89.1001 1031.62 90.3751C1027.87 90.6001 1024.2 91.2751 1021.05 93.1501C1018.8 94.5001 1017.52 96.6751 1015.42 98.2501C1013.02 99.9751 1010.17 101.25 1007.62 102.825C1004.1 104.925 1001.32 107.625 999.075 110.7C989.85 121.725 986.175 117.225 972.525 116.925C968.925 116.7 965.325 116.475 961.65 116.25C957.525 116.025 953.325 115.35 949.2 115.575C942.6 115.875 936.75 118.5 930.75 120.45C926.175 121.575 921.6 122.7 916.875 123.225C908.175 123.225 899.475 122.1 890.775 121.725C887.85 121.575 884.925 120.975 882.075 121.8C880.95 122.1 879.45 122.775 879.675 123.975C879.675 124.05 879.75 124.125 879.75 124.2C877.125 124.5 874.5 124.65 871.875 124.425C871.275 124.425 870.6 124.35 870 124.275C868.875 118.875 867.525 113.55 865.95 108.225C864.675 101.55 863.025 94.8751 860.7 88.3501C859.875 85.7251 858.975 83.1751 857.7 80.7001C854.4 74.6251 849.3 69.2251 843.45 64.7251C840 61.9501 835.65 60.4501 831.225 59.1751C825 57.2251 818.55 56.0251 812.1 54.6001C802.425 52.5751 792.9 50.1001 783.075 48.7501C778.275 48.1501 773.475 47.6251 768.675 47.3251C760.35 46.7251 751.95 47.3251 743.625 47.6251C736.875 47.8501 730.05 48.2251 723.375 49.2001C716.925 50.0251 710.625 51.6001 704.25 52.7251C681.525 56.6251 658.575 61.2001 637.65 69.8251C628.65 73.4251 619.275 76.4251 610.5 80.4751C601.65 84.3751 592.575 87.9751 584.4 92.9251C582.675 94.0501 580.95 95.1751 579.225 96.3001C578.175 96.3751 577.125 96.4501 576.075 96.5251C571.35 96.7501 566.625 96.6001 561.975 97.1251C558 97.7251 554.175 98.4751 550.125 98.9251C544.5 99.7501 538.8 99.9751 533.175 99.1501C527.4 97.6501 521.475 96.2251 515.85 94.0501C513.15 92.9251 510.075 91.3501 507.075 90.3751C502.275 88.8001 497.1 88.2751 492.075 87.6751C488.1 87.3001 484.05 87.3001 480 87.0751C478.2 86.9251 476.4 86.8501 474.6 86.7751C474.525 86.7001 474.45 86.6251 474.375 86.5501C471.6 83.7001 468.675 80.6251 464.7 78.9001C458.475 76.3501 451.2 76.4251 444.375 76.8001C434.175 77.7001 423.9 78.3001 413.85 79.8751C408.75 80.4751 403.65 80.9251 398.625 81.8251C390.9 83.3251 383.1 84.6751 375.075 84.0751C365.025 83.8501 355.35 81.0001 346.425 77.1001C340.125 74.3251 333.525 72.6751 326.775 70.6501C323.025 69.5251 319.35 68.2501 315.375 67.8001C306.15 67.2751 297.6 70.2751 288.45 71.4001C285.9 63.5251 268.725 73.4251 264.825 76.6501C258.075 81.6001 252.825 87.8251 249.3 94.6501C247.575 94.4251 245.775 94.2751 244.05 94.0501C243.525 93.9751 242.925 93.9001 242.4 93.8251C240.6 93.6001 238.725 93.5251 236.925 93.6001C232.5 94.0501 224.85 95.7001 224.25 100.2C224.25 100.275 224.25 100.35 224.25 100.425C223.05 101.25 221.85 102.075 220.725 102.9C218.85 104.175 216.9 105.3 215.25 106.725C213.45 108.225 211.95 110.025 210.225 111.675C207.825 113.925 204.9 115.575 202.2 117.525C195.675 122.25 195.225 124.2 186 125.4C182.4 126.075 178.725 126 175.125 126.3C170.925 126.6 166.95 127.8 163.275 129.525C157.575 131.85 153.6 136.2 149.25 139.875C147.225 141.3 145.05 142.2 142.8 143.55C139.875 145.275 137.175 147.375 133.725 148.5C129 149.775 123.975 149.625 119.1 150.3C114.6 150.75 110.25 151.125 105.675 151.35C95.175 151.725 84.675 151.65 74.25 151.2C69.6 150.9 65.025 150.375 60.375 150.525C55.275 150.6 50.25 150.3 45.15 150.375C36.3 150.675 27.525 151.2 18.675 151.125C12.45 151.125 6.22498 151.5 -2.4423e-05 151.275C-0.0750244 151.275 -0.150024 151.275 -0.150024 151.275V273.75H1440V273.675Z" fill="#0f415e


"/>
</g>
</g>
<defs>
<clipPath id="clip0_1_185">
<rect width="1440" height="270" fill="white"/>
</clipPath>
<clipPath id="clip1_1_185">
<rect width="1440" height="273.675" fill="white"/>
</clipPath>
</defs>
</svg>
