<svg width="1413" height="446" viewBox="0 0 1413 446" fill="none" xmlns="http://www.w3.org/2000/svg">
<path d="M117.651 403.804L109.252 384.182C110.658 382.873 112.17 381.684 113.774 380.627L143.663 380.996H143.739L235.786 393.102C235.874 393.102 235.958 393.137 236.02 393.199C236.082 393.261 236.117 393.346 236.117 393.434C236.117 393.522 236.082 393.606 236.02 393.668C235.958 393.73 235.874 393.765 235.786 393.765L117.964 403.956C117.903 403.961 117.842 403.95 117.787 403.923C117.732 403.896 117.685 403.855 117.651 403.804Z" fill="#7E7DB1" stroke="black" stroke-miterlimit="10" stroke-linecap="round"/>
<path d="M114.646 357.838C114.626 357.832 114.605 357.831 114.585 357.833C114.564 357.836 114.544 357.843 114.527 357.854C114.509 357.864 114.494 357.878 114.481 357.895C114.469 357.912 114.461 357.931 114.457 357.951L109.357 383.688C109.357 383.802 109.233 384.2 109.357 384.21L241.227 393.159C241.25 393.152 241.271 393.137 241.286 393.118C241.3 393.098 241.308 393.074 241.308 393.05C241.308 393.025 241.3 393.001 241.286 392.982C241.271 392.962 241.25 392.948 241.227 392.941L114.646 357.838Z" fill="white" stroke="black" stroke-miterlimit="10" stroke-linecap="round"/>
<path d="M241.255 392.941C225.595 393.841 110.484 401.055 105.337 401.349C105.286 401.355 105.238 401.376 105.199 401.41C105.16 401.444 105.132 401.489 105.119 401.539L94.8052 445.05C94.7939 445.093 94.7947 445.139 94.8074 445.182C94.8202 445.225 94.8445 445.264 94.8777 445.294C94.9108 445.324 94.9516 445.345 94.9957 445.354C95.0397 445.362 95.0853 445.359 95.1275 445.344L241.217 393.206C241.492 393.054 241.54 392.922 241.255 392.941Z" fill="white" stroke="black" stroke-miterlimit="10" stroke-linecap="round"/>
<path d="M41.2268 61.6956L43.5493 40.4803C45.4167 40.027 47.3196 39.7352 49.2371 39.6082L75.0879 54.5575H75.1447L149.427 110.354C149.499 110.401 149.551 110.474 149.571 110.558C149.591 110.642 149.577 110.73 149.532 110.805C149.488 110.879 149.417 110.932 149.333 110.955C149.25 110.977 149.161 110.965 149.085 110.923L41.4259 61.9326C41.3759 61.9123 41.3317 61.8801 41.297 61.8388C41.2623 61.7975 41.2382 61.7483 41.2268 61.6956Z" fill="#7E7DB1" stroke="black" stroke-miterlimit="10" stroke-linecap="round"/>
<path d="M61.1906 20.1371C61.1764 20.121 61.1589 20.108 61.1393 20.0992C61.1197 20.0903 61.0984 20.0858 61.0769 20.0858C61.0554 20.0858 61.0341 20.0903 61.0145 20.0992C60.9949 20.108 60.9774 20.121 60.9631 20.1371L43.8999 40.0442C43.824 40.1295 43.5396 40.4329 43.6439 40.4992L154.119 113.046C154.13 113.055 154.142 113.062 154.155 113.066C154.168 113.07 154.182 113.071 154.195 113.07C154.209 113.068 154.222 113.064 154.234 113.058C154.246 113.052 154.257 113.043 154.266 113.032C154.275 113.022 154.281 113.009 154.285 112.996C154.289 112.983 154.291 112.969 154.289 112.956C154.288 112.942 154.284 112.929 154.277 112.917C154.271 112.905 154.262 112.894 154.252 112.885L61.1906 20.1371Z" fill="white" stroke="black" stroke-miterlimit="10" stroke-linecap="round"/>
<path d="M154.233 112.885C140.146 105.984 36.3352 55.733 31.7092 53.4674C31.6622 53.444 31.6087 53.4369 31.5573 53.4472C31.5058 53.4575 31.4592 53.4846 31.4248 53.5243L1.0617 86.3426C1.03276 86.3763 1.01312 86.4171 1.00472 86.4608C0.996327 86.5044 0.999459 86.5496 1.01381 86.5917C1.02817 86.6338 1.05325 86.6714 1.08658 86.7009C1.11991 86.7303 1.16035 86.7506 1.2039 86.7597L154.1 113.047C154.384 113.113 154.489 113.018 154.233 112.885Z" fill="white" stroke="black" stroke-miterlimit="10" stroke-linecap="round"/>
<path d="M294.464 161.8L296.512 143.059C298.162 142.66 299.842 142.403 301.536 142.291L324.363 155.562H324.42L389.943 204.837C389.998 204.881 390.036 204.944 390.049 205.013C390.062 205.083 390.05 205.155 390.014 205.216C389.978 205.277 389.922 205.324 389.854 205.346C389.787 205.369 389.714 205.367 389.649 205.34L294.597 162.056C294.553 162.03 294.518 161.992 294.494 161.947C294.471 161.902 294.461 161.851 294.464 161.8Z" fill="#7E7DB1" stroke="black" stroke-miterlimit="10" stroke-linecap="round"/>
<path d="M312.049 125.133C312.036 125.119 312.021 125.108 312.004 125.1C311.987 125.092 311.968 125.088 311.949 125.088C311.931 125.088 311.912 125.092 311.895 125.1C311.878 125.108 311.862 125.119 311.85 125.133L296.758 142.718C296.692 142.793 296.445 143.059 296.531 143.116L394.114 207.198C394.133 207.206 394.154 207.207 394.174 207.202C394.193 207.197 394.211 207.185 394.224 207.169C394.237 207.153 394.244 207.134 394.245 207.113C394.245 207.093 394.239 207.072 394.227 207.056L312.049 125.133Z" fill="white" stroke="black" stroke-miterlimit="10" stroke-linecap="round"/>
<path d="M394.227 207.065C381.79 200.96 290.094 156.577 286.008 154.577C285.969 154.553 285.922 154.545 285.876 154.554C285.831 154.562 285.79 154.587 285.762 154.624L258.944 183.622C258.919 183.652 258.901 183.688 258.894 183.726C258.886 183.765 258.889 183.804 258.901 183.842C258.914 183.879 258.936 183.912 258.965 183.939C258.994 183.965 259.029 183.983 259.067 183.992L394.113 207.207C394.36 207.255 394.455 207.179 394.227 207.065Z" fill="white" stroke="black" stroke-miterlimit="10" stroke-linecap="round"/>
<path d="M503.271 41.1533L507.755 26.6211C509.121 26.5517 510.491 26.5993 511.85 26.7633L527.965 40.6888L572.567 89.5561C572.604 89.5996 572.625 89.6553 572.624 89.7129C572.624 89.7704 572.602 89.8258 572.564 89.8687C572.526 89.9117 572.473 89.9392 572.416 89.9462C572.359 89.9532 572.301 89.9392 572.254 89.9068L503.366 41.3808C503.333 41.3534 503.307 41.3184 503.29 41.2787C503.274 41.2391 503.267 41.1961 503.271 41.1533Z" fill="#7E7DB1" stroke="black" stroke-miterlimit="10" stroke-linecap="round"/>
<path d="M522.742 14.7243C522.731 14.7136 522.719 14.7052 522.705 14.6995C522.691 14.6938 522.676 14.6908 522.661 14.6908C522.646 14.6908 522.632 14.6938 522.618 14.6995C522.604 14.7052 522.591 14.7136 522.581 14.7243L507.982 26.4031C507.916 26.46 507.679 26.6306 507.745 26.6875L575.505 92.0966C575.519 92.1071 575.536 92.1127 575.553 92.1124C575.57 92.1121 575.587 92.1059 575.6 92.0948C575.613 92.0838 575.623 92.0686 575.626 92.0516C575.629 92.0347 575.627 92.0171 575.619 92.0018L522.742 14.7243Z" fill="white" stroke="black" stroke-miterlimit="10" stroke-linecap="round"/>
<path d="M575.619 92.0303C566.67 85.3187 500.626 36.3851 497.687 34.2048C497.656 34.1844 497.62 34.1736 497.583 34.1736C497.546 34.1736 497.51 34.1844 497.479 34.2048L471.884 53.164C471.856 53.1797 471.834 53.2025 471.818 53.23C471.802 53.2574 471.793 53.2886 471.793 53.3204C471.793 53.3522 471.802 53.3834 471.818 53.4108C471.834 53.4383 471.856 53.4611 471.884 53.4768L575.477 92.1251C575.695 92.1725 575.78 92.1251 575.619 92.0303Z" fill="white" stroke="black" stroke-miterlimit="10" stroke-linecap="round"/>
<path d="M486.54 262.606L484.852 250.69C485.81 250.17 486.813 249.735 487.848 249.391L504.058 253.979L552.404 274.086C552.445 274.105 552.478 274.138 552.497 274.179C552.516 274.22 552.519 274.267 552.507 274.311C552.494 274.354 552.466 274.392 552.428 274.417C552.39 274.442 552.344 274.452 552.299 274.446L486.663 262.701C486.637 262.694 486.613 262.682 486.591 262.666C486.57 262.649 486.553 262.629 486.54 262.606Z" fill="#7E7DB1" stroke="black" stroke-miterlimit="10" stroke-linecap="round"/>
<path d="M491.639 237.134C491.622 237.12 491.6 237.111 491.578 237.111C491.555 237.111 491.533 237.12 491.516 237.134L484.956 250.406C484.956 250.472 484.814 250.671 484.88 250.69L555.39 274.986C555.456 274.986 555.503 274.91 555.39 274.872L491.639 237.134Z" fill="white" stroke="black" stroke-miterlimit="10" stroke-linecap="round"/>
<path d="M555.437 274.834C546.782 273.024 483.041 260.056 480.198 259.468C480.168 259.46 480.138 259.463 480.11 259.475C480.083 259.487 480.06 259.508 480.046 259.534L468.045 281.717C468.033 281.739 468.027 281.764 468.028 281.789C468.029 281.814 468.037 281.838 468.05 281.859C468.064 281.881 468.083 281.898 468.105 281.909C468.127 281.921 468.152 281.926 468.177 281.925L555.39 274.948C555.551 274.986 555.598 274.872 555.437 274.834Z" fill="white" stroke="black" stroke-miterlimit="10" stroke-linecap="round"/>
<path d="M227.794 26.8203L229.463 14.895C230.524 14.6715 231.602 14.5383 232.686 14.4968L247 23.3982L287.923 56.1122C287.954 56.1426 287.974 56.1828 287.979 56.2259C287.984 56.269 287.973 56.3125 287.95 56.3491C287.927 56.3857 287.892 56.4132 287.851 56.427C287.809 56.4408 287.765 56.4401 287.724 56.425L227.899 26.9814C227.867 26.9681 227.84 26.9457 227.822 26.9169C227.803 26.8882 227.793 26.8545 227.794 26.8203Z" fill="#7E7DB1" stroke="black" stroke-miterlimit="10" stroke-linecap="round"/>
<path d="M239.748 3.75641C239.74 3.74809 239.731 3.74148 239.72 3.73695C239.709 3.73243 239.698 3.7301 239.686 3.7301C239.675 3.7301 239.664 3.73243 239.653 3.73695C239.642 3.74148 239.633 3.74809 239.625 3.75641L229.652 14.6864C229.652 14.7338 229.444 14.8949 229.501 14.9328L290.54 57.7237C290.552 57.7337 290.568 57.7384 290.584 57.7366C290.6 57.7348 290.615 57.7268 290.625 57.7142C290.635 57.7016 290.64 57.6856 290.638 57.6696C290.636 57.6536 290.628 57.6389 290.616 57.6289L239.748 3.75641Z" fill="white" stroke="black" stroke-miterlimit="10" stroke-linecap="round"/>
<path d="M290.616 57.6289C282.795 53.4958 225.131 23.3981 222.562 22.0425C222.539 22.0248 222.51 22.0153 222.481 22.0153C222.452 22.0153 222.424 22.0248 222.401 22.0425L204.731 40.0537C204.713 40.0722 204.701 40.095 204.695 40.1198C204.69 40.1446 204.691 40.1704 204.699 40.1946C204.706 40.2188 204.72 40.2404 204.739 40.2573C204.758 40.2743 204.782 40.2858 204.806 40.2907L290.54 57.7237C290.672 57.7521 290.758 57.7047 290.616 57.6289Z" fill="white" stroke="black" stroke-miterlimit="10" stroke-linecap="round"/>
<path d="M1295.51 401.065L1303.91 381.442C1302.5 380.136 1300.99 378.947 1299.39 377.887L1269.5 378.266H1269.43L1177.38 390.381C1177.31 390.395 1177.24 390.435 1177.19 390.494C1177.13 390.554 1177.11 390.63 1177.11 390.708C1177.11 390.787 1177.13 390.862 1177.19 390.922C1177.24 390.982 1177.31 391.022 1177.38 391.035L1295.18 401.226C1295.24 401.233 1295.31 401.221 1295.37 401.193C1295.42 401.164 1295.47 401.12 1295.51 401.065Z" fill="#7E7DB1" stroke="black" stroke-miterlimit="10" stroke-linecap="round"/>
<path d="M1298.5 355.136C1298.52 355.131 1298.55 355.129 1298.57 355.133C1298.59 355.136 1298.61 355.144 1298.63 355.155C1298.64 355.167 1298.66 355.182 1298.67 355.2C1298.68 355.218 1298.69 355.238 1298.69 355.259L1303.79 380.987C1303.79 381.11 1303.92 381.508 1303.79 381.508L1171.92 390.457C1171.9 390.45 1171.88 390.436 1171.86 390.416C1171.85 390.396 1171.84 390.373 1171.84 390.348C1171.84 390.324 1171.85 390.3 1171.86 390.28C1171.88 390.26 1171.9 390.246 1171.92 390.239L1298.5 355.136Z" fill="white" stroke="black" stroke-miterlimit="10" stroke-linecap="round"/>
<path d="M1171.89 390.239C1187.56 391.14 1302.71 398.354 1307.81 398.648C1307.87 398.651 1307.92 398.673 1307.96 398.709C1308 398.745 1308.02 398.794 1308.03 398.847L1318.35 442.358C1318.36 442.402 1318.36 442.448 1318.35 442.49C1318.33 442.533 1318.31 442.571 1318.27 442.601C1318.24 442.63 1318.2 442.649 1318.15 442.657C1318.11 442.664 1318.06 442.659 1318.02 442.642L1171.93 390.457C1171.66 390.362 1171.61 390.23 1171.89 390.239Z" fill="white" stroke="black" stroke-miterlimit="10" stroke-linecap="round"/>
<path d="M1371.92 58.956L1369.6 37.7312C1367.73 37.2825 1365.83 36.9907 1363.91 36.8591L1338.06 51.8652H1338.01L1263.77 107.624C1263.7 107.671 1263.65 107.744 1263.63 107.828C1263.61 107.912 1263.62 108 1263.66 108.074C1263.71 108.148 1263.78 108.202 1263.86 108.224C1263.95 108.246 1264.04 108.235 1264.11 108.193L1371.72 59.2404C1371.78 59.2143 1371.83 59.1744 1371.86 59.1245C1371.9 59.0747 1371.92 59.0166 1371.92 58.956Z" fill="#7E7DB1" stroke="black" stroke-miterlimit="10" stroke-linecap="round"/>
<path d="M1351.96 17.4354C1351.97 17.4192 1351.99 17.4063 1352.01 17.3975C1352.03 17.3886 1352.05 17.384 1352.07 17.384C1352.09 17.384 1352.12 17.3886 1352.13 17.3975C1352.15 17.4063 1352.17 17.4192 1352.19 17.4354L1369.25 37.3425C1369.33 37.4373 1369.61 37.7312 1369.51 37.7975L1259.04 110.354C1259.02 110.366 1258.99 110.37 1258.97 110.365C1258.94 110.36 1258.92 110.346 1258.9 110.326C1258.88 110.306 1258.87 110.281 1258.87 110.255C1258.87 110.229 1258.88 110.204 1258.9 110.184L1351.96 17.4354Z" fill="white" stroke="black" stroke-miterlimit="10" stroke-linecap="round"/>
<path d="M1258.92 110.193C1273 103.283 1376.81 53.0313 1381.44 50.7656C1381.49 50.7405 1381.54 50.7325 1381.59 50.7429C1381.64 50.7533 1381.69 50.7814 1381.72 50.8225L1412.06 83.6598C1412.09 83.6936 1412.11 83.7343 1412.12 83.778C1412.12 83.8217 1412.12 83.8668 1412.11 83.9089C1412.09 83.951 1412.07 83.9886 1412.03 84.0181C1412 84.0476 1411.96 84.0678 1411.92 84.0769L1259.03 110.364C1258.77 110.411 1258.66 110.316 1258.92 110.193Z" fill="white" stroke="black" stroke-miterlimit="10" stroke-linecap="round"/>
<path d="M1118.73 159.108L1116.68 140.376C1115.03 139.97 1113.35 139.71 1111.66 139.599L1088.82 152.87H1088.77L1023.21 202.117C1023.15 202.161 1023.11 202.223 1023.1 202.293C1023.09 202.362 1023.1 202.434 1023.14 202.496C1023.17 202.557 1023.23 202.603 1023.29 202.626C1023.36 202.648 1023.44 202.646 1023.5 202.619L1118.55 159.335C1118.6 159.315 1118.64 159.284 1118.67 159.244C1118.7 159.205 1118.72 159.158 1118.73 159.108Z" fill="#7E7DB1" stroke="black" stroke-miterlimit="10" stroke-linecap="round"/>
<path d="M1101.1 122.431C1101.13 122.405 1101.16 122.391 1101.2 122.391C1101.24 122.391 1101.27 122.405 1101.3 122.431L1116.39 140.016C1116.46 140.101 1116.7 140.357 1116.62 140.414L1019.04 204.506C1019.02 204.521 1018.99 204.527 1018.97 204.524C1018.94 204.52 1018.92 204.507 1018.9 204.487C1018.89 204.466 1018.88 204.441 1018.89 204.416C1018.89 204.391 1018.9 204.369 1018.92 204.354L1101.1 122.431Z" fill="white" stroke="black" stroke-miterlimit="10" stroke-linecap="round"/>
<path d="M1018.92 204.363C1031.36 198.258 1123.06 153.875 1127.14 151.875C1127.18 151.853 1127.23 151.846 1127.27 151.855C1127.32 151.863 1127.36 151.887 1127.39 151.922L1154.21 180.93C1154.23 180.959 1154.25 180.994 1154.26 181.032C1154.26 181.07 1154.26 181.109 1154.25 181.146C1154.24 181.183 1154.21 181.215 1154.19 181.241C1154.16 181.266 1154.12 181.283 1154.08 181.29L1019.04 204.515C1018.79 204.553 1018.7 204.477 1018.92 204.363Z" fill="white" stroke="black" stroke-miterlimit="10" stroke-linecap="round"/>
<path d="M909.879 38.4517L905.442 23.9005C904.076 23.8311 902.706 23.8787 901.347 24.0427L885.232 37.9967L840.678 86.8639C840.63 86.9054 840.601 86.9642 840.596 87.0273C840.592 87.0904 840.613 87.1527 840.654 87.2004C840.696 87.2482 840.754 87.2775 840.817 87.282C840.881 87.2864 840.943 87.2656 840.991 87.2241L909.784 38.6792C909.818 38.6529 909.845 38.6181 909.862 38.5781C909.878 38.5382 909.884 38.4946 909.879 38.4517Z" fill="#7E7DB1" stroke="black" stroke-miterlimit="10" stroke-linecap="round"/>
<path d="M890.408 12.0227C890.418 12.0121 890.431 12.0037 890.445 11.998C890.458 11.9922 890.473 11.9893 890.488 11.9893C890.503 11.9893 890.518 11.9922 890.532 11.998C890.546 12.0037 890.558 12.0121 890.569 12.0227L905.167 23.711C905.234 23.7584 905.471 23.9291 905.404 23.9954L837.644 89.3951C837.631 89.4056 837.614 89.4112 837.597 89.4109C837.579 89.4106 837.563 89.4044 837.549 89.3933C837.536 89.3823 837.527 89.367 837.524 89.3501C837.52 89.3332 837.523 89.3156 837.531 89.3003L890.408 12.0227Z" fill="white" stroke="black" stroke-miterlimit="10" stroke-linecap="round"/>
<path d="M837.53 89.3001C846.479 82.5981 912.523 33.6645 915.462 31.4747C915.493 31.4543 915.529 31.4434 915.566 31.4434C915.603 31.4434 915.639 31.4543 915.67 31.4747L941.265 50.4338C941.293 50.4496 941.316 50.4723 941.332 50.4998C941.348 50.5273 941.356 50.5585 941.356 50.5902C941.356 50.622 941.348 50.6532 941.332 50.6807C941.316 50.7081 941.293 50.7309 941.265 50.7467L837.644 89.3949C837.454 89.4707 837.369 89.4234 837.53 89.3001Z" fill="white" stroke="black" stroke-miterlimit="10" stroke-linecap="round"/>
<path d="M926.61 259.914L928.297 247.988C927.337 247.486 926.339 247.061 925.311 246.718L909.101 251.287L860.755 271.393C860.709 271.407 860.67 271.439 860.647 271.482C860.624 271.524 860.618 271.575 860.632 271.621C860.646 271.668 860.678 271.707 860.72 271.73C860.763 271.753 860.813 271.758 860.86 271.744L926.496 259.999C926.52 259.994 926.543 259.984 926.562 259.969C926.582 259.954 926.598 259.935 926.61 259.914Z" fill="#7E7DB1" stroke="black" stroke-miterlimit="10" stroke-linecap="round"/>
<path d="M921.491 234.442C921.499 234.434 921.509 234.427 921.519 234.423C921.53 234.418 921.541 234.416 921.553 234.416C921.564 234.416 921.576 234.418 921.586 234.423C921.597 234.427 921.606 234.434 921.614 234.442L928.174 247.713C928.174 247.77 928.316 247.969 928.25 247.998L857.76 272.218C857.746 272.224 857.73 272.225 857.716 272.22C857.702 272.214 857.69 272.204 857.684 272.19C857.678 272.176 857.677 272.16 857.682 272.146C857.688 272.132 857.699 272.12 857.712 272.114L921.491 234.442Z" fill="white" stroke="black" stroke-miterlimit="10" stroke-linecap="round"/>
<path d="M857.712 272.142C866.367 270.332 930.108 257.364 932.952 256.766C932.981 256.762 933.011 256.765 933.038 256.777C933.064 256.789 933.087 256.808 933.104 256.833L945.105 279.015C945.116 279.037 945.122 279.062 945.121 279.087C945.12 279.112 945.112 279.137 945.099 279.158C945.086 279.179 945.067 279.196 945.044 279.208C945.022 279.219 944.997 279.225 944.972 279.224L857.76 272.247C857.599 272.237 857.551 272.142 857.712 272.142Z" fill="white" stroke="black" stroke-miterlimit="10" stroke-linecap="round"/>
<path d="M1185.35 24.1185L1183.65 12.1932C1182.59 11.973 1181.51 11.843 1180.43 11.8046L1166.11 20.6964L1125.22 53.3915C1125.19 53.4219 1125.17 53.4621 1125.16 53.5052C1125.16 53.5483 1125.17 53.5918 1125.19 53.6284C1125.21 53.665 1125.25 53.6925 1125.29 53.7063C1125.33 53.7201 1125.37 53.7194 1125.42 53.7043L1185.24 24.2607C1185.27 24.2502 1185.3 24.2312 1185.32 24.2061C1185.34 24.1809 1185.35 24.1506 1185.35 24.1185Z" fill="#7E7DB1" stroke="black" stroke-miterlimit="10" stroke-linecap="round"/>
<path d="M1173.4 1.02631C1173.41 1.01799 1173.42 1.01137 1173.43 1.00685C1173.44 1.00233 1173.45 1 1173.46 1C1173.47 1 1173.49 1.00233 1173.5 1.00685C1173.51 1.01137 1173.52 1.01799 1173.52 1.02631L1183.5 11.9563C1183.54 12.0037 1183.71 12.1743 1183.65 12.2122L1122.61 55.0599C1122.6 55.0649 1122.6 55.0686 1122.59 55.0708C1122.58 55.073 1122.57 55.0737 1122.57 55.0729C1122.56 55.072 1122.55 55.0695 1122.54 55.0657C1122.54 55.0618 1122.53 55.0567 1122.52 55.0504C1122.52 55.0442 1122.52 55.0371 1122.51 55.0294C1122.51 55.0218 1122.51 55.0137 1122.51 55.0058C1122.51 54.9979 1122.52 54.9902 1122.52 54.9832C1122.52 54.9763 1122.53 54.9701 1122.53 54.9651L1173.4 1.02631Z" fill="white" stroke="black" stroke-miterlimit="10" stroke-linecap="round"/>
<path d="M1122.53 54.9272C1130.35 50.7941 1188.02 20.6964 1190.59 19.3409C1190.61 19.3232 1190.64 19.3136 1190.67 19.3136C1190.7 19.3136 1190.73 19.3232 1190.75 19.3409L1208.42 37.3521C1208.44 37.3699 1208.45 37.392 1208.46 37.4162C1208.46 37.4403 1208.46 37.4657 1208.45 37.4897C1208.45 37.5137 1208.43 37.5355 1208.42 37.5529C1208.4 37.5704 1208.38 37.5828 1208.35 37.5891L1122.61 55.0599C1122.45 55.0599 1122.39 55.003 1122.53 54.9272Z" fill="white" stroke="black" stroke-miterlimit="10" stroke-linecap="round"/>
</svg>
