<svg width="1392" height="291" viewBox="0 0 1392 291" fill="none" xmlns="http://www.w3.org/2000/svg">
    <path d="M1439.98 73.4923C1404.95 80.5422 1369.93 87.5921 1334.98 94.717C1323.88 96.967 1312.25 99.1419 1301.45 95.842C1289.23 92.092 1280.15 82.0422 1269.58 74.9173C1214.98 38.2429 1129.41 83.7672 1079.98 40.4179C1072.48 33.893 1066.48 25.6431 1058.31 19.9432C1046.98 11.9933 1032.73 9.81836 1019.01 7.86839C962.009 -0.381478 900.81 -8.10635 849.286 17.6932C833.162 25.7931 818.537 36.8929 801.437 42.5928C748.038 60.2925 689.089 20.0182 634.865 34.943C592.715 46.4928 563.916 88.7921 521.392 98.6919C473.692 109.717 427.868 76.9423 379.869 67.2674C368.469 64.9425 356.169 64.1175 345.594 68.9924C336.82 73.1173 330.22 80.7672 324.595 88.7171C299.77 123.592 285.82 169.491 248.246 189.965C184.047 224.915 84.7486 166.866 38.9994 224.015L0 249.814V310.114H1439.98V73.4923Z"
          fill="#25749e"/>
</svg>
