<svg width="1440" height="347" viewBox="0 0 1440 347" fill="none" xmlns="http://www.w3.org/2000/svg">
<path d="M1439.98 0.109863C1393.4 22.0095 1358.91 58.009 1300.63 59.284C1286.61 59.584 1272.51 57.709 1258.63 58.909C1223.98 61.909 1202.01 82.4587 1171.26 92.5085C1100.53 115.608 1014.66 77.6587 934.712 83.7337C890.087 87.1836 848.463 104.433 803.913 100.833C779.839 98.8834 758.464 91.0835 736.264 85.2336C670.265 67.8339 591.891 68.2089 526.342 86.2086C502.943 92.6585 479.618 101.358 453.893 100.533C421.044 99.4834 393.744 82.8337 360.82 82.2337C290.471 82.2337 259.496 121.683 194.847 85.3086C151.873 61.084 131.773 32.1344 65.1741 28.5345C38.2495 26.9595 16.8748 29.2844 0 34.4594V346.155H1439.98V0.109863Z" fill="#0f415e"/>
</svg>
