<svg width="1335" height="758" viewBox="0 0 1335 758" fill="none" xmlns="http://www.w3.org/2000/svg">
<path d="M1301.88 226.693L1296.48 212.624C1295.13 212.655 1293.79 212.797 1292.46 213.047L1277.54 227.946L1236.94 279.28C1236.9 279.323 1236.87 279.382 1236.87 279.443C1236.87 279.505 1236.9 279.563 1236.94 279.607C1236.98 279.65 1237.04 279.674 1237.1 279.674C1237.16 279.674 1237.22 279.65 1237.27 279.607L1301.8 226.887C1301.83 226.863 1301.85 226.832 1301.86 226.799C1301.88 226.765 1301.88 226.728 1301.88 226.693Z" fill="#7D7DB2" stroke="black" stroke-miterlimit="10" stroke-linecap="round"/>
<path d="M1280.82 202.032C1280.84 202.011 1280.87 202 1280.89 202C1280.92 202 1280.95 202.011 1280.97 202.032L1296.19 212.526C1296.26 212.579 1296.51 212.729 1296.45 212.791L1234.2 282.087C1234.19 282.097 1234.17 282.103 1234.16 282.103C1234.14 282.104 1234.12 282.098 1234.11 282.088C1234.1 282.079 1234.08 282.065 1234.08 282.048C1234.07 282.032 1234.07 282.015 1234.08 281.999L1280.82 202.032Z" fill="white" stroke="black" stroke-miterlimit="10" stroke-linecap="round"/>
<path d="M1234.08 281.919C1242.44 274.673 1304.15 221.776 1306.9 219.402C1306.93 219.378 1306.96 219.365 1307 219.365C1307.04 219.365 1307.07 219.378 1307.1 219.402L1333.69 236.322C1333.71 236.338 1333.74 236.36 1333.75 236.387C1333.77 236.414 1333.78 236.445 1333.78 236.477C1333.78 236.508 1333.77 236.539 1333.75 236.566C1333.74 236.594 1333.71 236.616 1333.69 236.631L1234.2 282.007C1234.02 282.096 1233.92 282.052 1234.08 281.919Z" fill="white" stroke="black" stroke-miterlimit="10" stroke-linecap="round"/>
<path d="M1116.31 100.828L1129.55 88.4706C1128.9 86.9741 1128.13 85.5334 1127.25 84.1634L1103.95 74.2072H1103.9L1028.36 52.0531C1028.3 52.0369 1028.23 52.0443 1028.17 52.074C1028.11 52.1037 1028.06 52.1538 1028.03 52.2153C1028.01 52.2768 1028 52.3458 1028.02 52.4098C1028.04 52.4739 1028.08 52.5289 1028.14 52.565L1116.02 100.845C1116.06 100.868 1116.11 100.879 1116.16 100.875C1116.21 100.872 1116.26 100.856 1116.31 100.828Z" fill="#7D7DB2" stroke="black" stroke-miterlimit="10" stroke-linecap="round"/>
<path d="M1134.39 66.2109C1134.41 66.214 1134.43 66.2207 1134.44 66.2305C1134.46 66.2402 1134.47 66.2529 1134.48 66.2678C1134.49 66.2826 1134.5 66.2993 1134.5 66.3168C1134.5 66.3343 1134.5 66.3524 1134.5 66.3698L1129.63 88.0738C1129.63 88.1709 1129.56 88.5151 1129.46 88.4798L1024.12 50.2175C1024.1 50.2175 1024.08 50.2082 1024.06 50.1917C1024.05 50.1751 1024.04 50.1527 1024.04 50.1293C1024.04 50.1059 1024.05 50.0834 1024.06 50.0669C1024.08 50.0503 1024.1 50.041 1024.12 50.041L1134.39 66.2109Z" fill="white" stroke="black" stroke-miterlimit="10" stroke-linecap="round"/>
<path d="M1024.17 50.0408C1036.01 56.1045 1122.81 101.154 1126.7 103.149C1126.74 103.168 1126.77 103.2 1126.79 103.241C1126.81 103.281 1126.81 103.326 1126.8 103.37L1119.89 140.652C1119.88 140.689 1119.87 140.724 1119.84 140.753C1119.82 140.781 1119.78 140.802 1119.75 140.814C1119.71 140.826 1119.67 140.827 1119.64 140.819C1119.6 140.811 1119.56 140.793 1119.54 140.767L1024.12 50.2174C1023.95 50.0497 1023.96 49.9349 1024.17 50.0408Z" fill="white" stroke="black" stroke-miterlimit="10" stroke-linecap="round"/>
<path d="M814.46 30.5688L813.127 15.564C811.819 15.2172 810.485 14.9839 809.137 14.8667L790.708 25.07L737.529 63.3499C737.488 63.386 737.461 63.4352 737.452 63.4891C737.442 63.543 737.452 63.5984 737.479 63.646C737.506 63.6936 737.548 63.7305 737.599 63.7505C737.65 63.7705 737.706 63.7724 737.759 63.7559L814.283 30.7718C814.329 30.7586 814.37 30.7324 814.401 30.6964C814.433 30.6604 814.453 30.6161 814.46 30.5688Z" fill="#7D7DB2" stroke="black" stroke-miterlimit="10" stroke-linecap="round"/>
<path d="M800.991 1.03585C801 1.02458 801.013 1.01556 801.026 1.00937C801.04 1.00319 801.055 1 801.07 1C801.085 1 801.1 1.00319 801.114 1.00937C801.127 1.01556 801.139 1.02458 801.149 1.03585L812.897 15.3081C812.95 15.3698 813.153 15.5817 813.074 15.6258L734.201 65.177C734.186 65.183 734.169 65.184 734.153 65.18C734.137 65.1759 734.123 65.1669 734.112 65.1543C734.101 65.1416 734.095 65.126 734.093 65.1095C734.092 65.0929 734.096 65.0765 734.104 65.0622L800.991 1.03585Z" fill="white" stroke="black" stroke-miterlimit="10" stroke-linecap="round"/>
<path d="M734.104 65.071C744.131 60.4019 817.955 26.4734 821.282 24.9376C821.317 24.9225 821.355 24.9187 821.391 24.9266C821.427 24.9346 821.461 24.9539 821.485 24.9817L842.413 48.5569C842.431 48.5808 842.444 48.609 842.448 48.639C842.453 48.6689 842.45 48.6995 842.439 48.7279C842.428 48.7563 842.411 48.7815 842.387 48.801C842.364 48.8205 842.336 48.8337 842.307 48.8394L734.201 65.1858C733.998 65.2211 733.919 65.1593 734.104 65.071Z" fill="white" stroke="black" stroke-miterlimit="10" stroke-linecap="round"/>
<path d="M32.8827 238.598L34.8951 221.89C36.3687 221.548 37.8687 221.333 39.3789 221.246L59.6795 233.294H59.7236L117.775 277.875C117.819 277.917 117.848 277.973 117.856 278.034C117.864 278.095 117.851 278.156 117.819 278.208C117.786 278.26 117.737 278.3 117.679 278.319C117.621 278.339 117.558 278.338 117.501 278.317L33.0769 238.792C33.0294 238.782 32.9859 238.758 32.9515 238.724C32.9171 238.689 32.8933 238.646 32.8827 238.598Z" fill="#7D7DB2" stroke="black" stroke-miterlimit="10" stroke-linecap="round"/>
<path d="M48.9731 206.038C48.9483 206.014 48.915 206 48.8804 206C48.8457 206 48.8125 206.014 48.7877 206.038L35.2039 221.59C35.1422 221.66 34.9127 221.89 34.9921 221.943L121.49 280.073C121.57 280.135 121.667 280.02 121.596 279.941L48.9731 206.038Z" fill="white" stroke="black" stroke-miterlimit="10" stroke-linecap="round"/>
<path d="M121.535 279.941C110.493 274.38 29.0697 233.894 25.4951 232.058C25.4569 232.041 25.4144 232.036 25.3733 232.044C25.3323 232.052 25.2946 232.072 25.2656 232.102L1.05488 257.699C1.03028 257.724 1.01305 257.755 1.00505 257.79C0.997051 257.824 0.998576 257.86 1.00947 257.894C1.02036 257.927 1.04022 257.957 1.06688 257.98C1.09355 258.004 1.12601 258.019 1.1608 258.025L121.473 280.038C121.649 280.117 121.702 280.047 121.535 279.941Z" fill="white" stroke="black" stroke-miterlimit="10" stroke-linecap="round"/>
<path d="M184.279 59.807L176.459 41.5364C177.765 40.3183 179.17 39.2112 180.66 38.2266L208.49 38.5708H208.551L294.255 49.8509C294.337 49.8509 294.416 49.8834 294.474 49.9414C294.532 49.9993 294.564 50.0779 294.564 50.1598C294.564 50.2417 294.532 50.3203 294.474 50.3782C294.416 50.4362 294.337 50.4687 294.255 50.4687L184.57 59.9659C184.512 59.9688 184.454 59.9555 184.402 59.9275C184.351 59.8994 184.308 59.8577 184.279 59.807Z" fill="#7D7DB2" stroke="black" stroke-miterlimit="10" stroke-linecap="round"/>
<path d="M181.481 17.008C181.462 17.0013 181.443 16.9987 181.423 17.0006C181.403 17.0025 181.384 17.0087 181.367 17.0189C181.35 17.029 181.336 17.0428 181.325 17.0593C181.314 17.0757 181.307 17.0944 181.304 17.114L176.547 41.0775C176.547 41.1834 176.432 41.5541 176.547 41.563L299.33 49.8862C299.356 49.8862 299.381 49.876 299.399 49.8578C299.417 49.8396 299.427 49.8149 299.427 49.7891C299.427 49.7634 299.417 49.7387 299.399 49.7205C299.381 49.7023 299.356 49.692 299.33 49.692L181.481 17.008Z" fill="white" stroke="black" stroke-miterlimit="10" stroke-linecap="round"/>
<path d="M299.357 49.6919C284.776 50.5745 177.597 57.2472 172.813 57.5209C172.764 57.5247 172.717 57.5438 172.679 57.5754C172.641 57.607 172.614 57.6496 172.602 57.6974L163.007 98.2104C162.997 98.2508 162.998 98.2934 163.009 98.3334C163.021 98.3735 163.044 98.4096 163.075 98.4377C163.106 98.4659 163.144 98.4851 163.185 98.4932C163.226 98.5014 163.268 98.4982 163.307 98.484L299.33 49.8861C299.578 49.7978 299.631 49.6742 299.357 49.6919Z" fill="white" stroke="black" stroke-miterlimit="10" stroke-linecap="round"/>
<path d="M652.458 714.69L640.252 699.006C641.205 697.496 642.283 696.068 643.474 694.737L670.478 687.999L670.538 687.983L756.295 677.115C756.374 677.095 756.458 677.106 756.529 677.147C756.6 677.189 756.651 677.256 756.672 677.336C756.693 677.415 756.681 677.499 756.64 677.57C756.599 677.641 756.531 677.692 756.452 677.713L652.78 714.769C652.724 714.787 652.664 714.789 652.608 714.775C652.551 714.761 652.499 714.731 652.458 714.69Z" fill="#7D7DB2" stroke="black" stroke-miterlimit="10" stroke-linecap="round"/>
<path d="M638.876 674.006C638.857 674.005 638.837 674.007 638.818 674.014C638.8 674.021 638.783 674.032 638.769 674.046C638.756 674.06 638.745 674.077 638.739 674.096C638.732 674.114 638.73 674.134 638.733 674.154L640.221 698.54C640.247 698.642 640.231 699.03 640.344 699.009L761.212 675.86C761.237 675.853 761.258 675.837 761.271 675.815C761.284 675.793 761.288 675.766 761.281 675.741C761.275 675.716 761.259 675.695 761.237 675.682C761.214 675.669 761.188 675.666 761.163 675.672L638.876 674.006Z" fill="white" stroke="black" stroke-miterlimit="10" stroke-linecap="round"/>
<path d="M761.188 675.665C747.31 680.224 645.345 713.912 640.788 715.392C640.741 715.408 640.701 715.439 640.672 715.479C640.643 715.519 640.628 715.567 640.628 715.617L641.643 757.238C641.643 757.28 641.654 757.321 641.676 757.356C641.698 757.392 641.729 757.421 641.766 757.441C641.803 757.46 641.844 757.469 641.886 757.466C641.928 757.464 641.968 757.45 642.003 757.426L761.212 675.86C761.429 675.712 761.449 675.579 761.188 675.665Z" fill="white" stroke="black" stroke-miterlimit="10" stroke-linecap="round"/>
</svg>
