<?xml version="1.0" encoding="UTF-8"?>
<svg id="_Слой_2" data-name="Слой 2" xmlns="http://www.w3.org/2000/svg" viewBox="0 0 1441.21 148.06">
  <defs>
    <style>
      .cls-1 {
        fill: #25749e;
      }

      .cls-1, .cls-2 {
        stroke-width: 0px;
      }

      .cls-2 {
        fill: #0f415e;
      }
    </style>
  </defs>
  <g id="_Слой_1-2" data-name="Слой 1">
    <g>
      <rect class="cls-1" x=".53" y="48.61" width="1440" height="99.45"/>
      <path class="cls-2" d="m178.24,121.65c2.1,3.53,2.78,8.11,1.43,12.01-1.28,4.05-5.25,7.73-9.76,6.91-5.85-1.43-12.68-7.43-11.78-13.96.53-3.76,5.7-7.28,9.31-7.51.38-1.27,1.88-1.57,3-1.65,3.15-.37,6.3,1.35,7.8,4.2Z"/>
      <path class="cls-2" d="m232.12,106.79c6.83,4.66,5.25,14.41,1.88,20.72-2.7,5.33-8.86,7.95-14.63,7.28-6.68-.75-13.58-2.71-18.91-6.98-10.13-8.71-2.93-17.49,7.43-20.72,1.05-1.2,2.93-1.27,4.35-1.87,5.85-1.73,14.56-1.88,19.89,1.57Z"/>
      <path class="cls-2" d="m602.25,130.28c2.63,6.91-4.2,11.34-9.68,13.59-6.98,2.77-15.61,5.55-23.04,3.45-5.33-1.8-10.13-4.95-14.56-8.41-4.65-3.6-6.98-6.45-2.55-11.63,1.58-5.03,12.46-8.48,17.19-10.05,6.75-2.41,12.61-2.33,19.14.75,5.48,2.62,10.96,6.6,13.51,12.3Z"/>
      <path class="cls-2" d="m797.75,123.23c-.45,4.43-4.28,7.8-7.8,10.13-5.1,2.85-11.11,5.7-17.04,4.35-5.33-1.12-10.28-6.6-8.48-12.23.38-1.05.98-1.95,1.73-2.78.75-2.25,2.18-4.27,3.98-5.85,4.65-4.13,12.23-2.7,17.79-1.43,3.68.98,9.68,3.46,9.83,7.81Z"/>
      <path class="cls-2" d="m833.25,123.75c3.6,5.03-.82,9.09-5.33,11.26-3.23,1.65-6.98,3.53-10.73,2.55-4.73-1.65-10.96-10.73-7.2-15.46,1.95-2.4,5.25-3,8.03-3.82,1.28-1.05,3.3-.38,4.73-.15,3.83,1.2,7.96,2.55,10.51,5.62Z"/>
      <path class="cls-2" d="m1017.42,121.5c16.28,10.81-1.43,18.16-13.14,16.29-4.65-.75-10.13-.68-14.18-3.23-3.83-2.63-8.18-8.25-7.05-13.13-1.05-1.05-.15-3,1.35-2.93,2.85-.6,5.55-1.8,8.33-2.85,4.88-2.33,9.98-.98,14.71.98,3.46,1.35,6.83,3,9.99,4.87Z"/>
      <path class="cls-2" d="m1407.81,15.69c-5.93.82-11.78,2.17-17.71,3.3-6.31,1.35-12.53,2.85-18.84,4.13-4.13.9-8.33,1.5-12.61,1.27-13.2-.75-25.96-4.58-39.1-6.15-10.28-.45-20.26,2.48-30.46,3.15-8.71.6-17.12-2.1-25.37-4.28-9.16-2.32-17.86-5.78-26.64-9.08-11.93-4.05-24.32-7.58-37-8.03-12.83.08-24.47,6.01-35.35,12.24-3.3,1.72-6.98,2.4-10.65,2.02-4.58-.3-9.08-.82-13.59-1.27-8.48-.98-17.11-1.51-25.44.9-4.2,1.2-8.25,2.77-12.53,3.6-7.73,1.5-15.31-1.28-22.89-2.1-8.33-.45-16.29,2.62-24.09,5.18-4.5,1.57-9.38,3.15-14.26,3.07-15.16-.82-29.87-5.1-44.43-9.3-7.35-1.88-14.78-3.38-22.21-4.88-10.58-2.33-21.54-4.05-32.35-1.88-3.45.68-6.76,1.8-9.83,3.38-6.08,2.93-10.88,7.8-16.43,11.48-8.33,5.33-17.94,9.23-27.99,8.33-6.83-.52-13.36-2.78-20.11-3.75-3.98-.6-7.96-.75-12.01-1.05-8.41-.15-15.98-3.08-24.32-3.38-21.61.68-40.07,12.98-62.14,4.8-8.03-3.15-15.76-7.2-24.39-8.78-7.65-1.42-15.38-4.05-23.26-2.92-3.68.52-7.05,2.02-10.66,2.77-6.68,1.13-13.51,1.73-20.19,2.86-2.18.45-9.98,1.27-13.06,3.3-3.45-.38-6.9-.68-10.36-.9-10.96-.68-21.99-1.58-32.87-3.23-11.93-1.65-23.86-4.35-35.95-4.5-4.8.07-9.53,1.05-14.26,1.87-6.98,1.28-13.96,2.63-20.94,3.68-12.83,2.1-25.52,1.58-38.5.23-9.01-.9-17.64-3.46-26.34-5.86-15.31-4.13-31.37-6.45-47.2-4.35-9.83.98-19.51,3-29.12,5.33-8.26,1.8-16.36,4.5-24.69,5.7-12.68,1.5-25.59-.22-37.75-3.75-6.38-2.03-12.83-4.05-19.51-4.2-6.83-.23-13.66.22-20.41.9-6.3.67-12.53,1.87-18.84,2.62-8.93,1.05-17.86,1.43-26.87,1.28-16.21-.15-32.35-2.25-48.55-3.23-6.68-.52-13.43-.82-20.04.15-13.73,1.88-27.32,4.88-41.13,5.78-14.93.68-29.94-.75-44.8-1.87-8.71-.98-17.41-1.88-26.12-1.58-5.85.22-11.63.82-17.34,1.8-6.98,1.13-13.81,3.3-20.86,4.43-9.16,1.12-18.09.22-27.32-.68-9.61-1.05-18.76-4.2-28.14-6.53v104.77c5.55,2.1,11.03,4.13,16.81,5.33,13.28,3.22,26.72-1.73,39.02-6.61,8.63-3.82,17.34-7.43,26.64-9.15,9.98-1.8,20.19-3,30.32-3.15,11.48-.15,22.81,2.02,34.3,2.17,10.81-.45,20.19-8.7,29.49-13.66,5.48-3.15,11.18-5.93,16.89-8.63,3.83-1.8,7.73-3.37,11.93-4.2,5.7-1.28,11.63-.6,17.41.53,12.91,2.47,24.62,8.85,37.07,12.75,8.03,2.56,16.29,4.36,24.54,5.93,4.8.9,9.68,1.73,14.63,1.58,7.8-.15,15.61-1.5,23.26-2.85,6.75-1.05,13.81-3.16,20.49-.6,24.84,10.2,32.8,9.23,57.79.9,5.48-1.65,11.11-2.86,16.73-3.61,5.48-.6,11.11-1.27,16.59-.22,5.48,1.05,10.73,3,16.14,4.58,9.23,2.7,18.61,4.88,28.14,6.38,21.46,3.6,43.08-.53,64.39-3.16,12.61-1.05,25.37-1.87,37.97-.3,12.76,2.26,25.37,5.71,37.6,9.84,7.58,2.7,15.01,5.62,22.81,7.65,8.03,2.25,16.21,3.53,24.47,4.5,7.2.98,14.48,1.65,21.76.9,7.65-.6,15.31-2.02,22.66-4.35,7.51-2.33,14.63-5.7,21.84-8.78,13.21-5.63,26.87-10.73,41.13-12.38,10.51-.3,21.01.37,31.44,1.95,16.66,2.63,33.25,7.65,50.43,7.35,12.38.3,23.71-5.48,35.65-7.88,5.1-1.05,10.36-1.2,15.46-.22,5.85,1.27,11.48,3.53,17.41,4.73,9.98,2.02,20.34,3.45,30.54,2.1,6.68-.98,12.91-3.6,19.44-5.03,11.63-2.4,24.09-4.2,35.5-.08,7.05,2.63,13.43,6.68,20.11,10.06,4.43,2.25,8.93,4.43,13.44,6.53,9.08,4.05,17.78,9.38,27.84,10.88,11.26,1.88,22.81.15,33.77-2.85,10.96-3.08,21.16-8.63,32.42-10.51,6.9-1.2,13.73.83,20.26,2.93,8.03,2.63,16.44,3.98,24.84,3.98,11.19,0,21.39-4.96,32.12-7.51,12.69-2.25,25.82-3.67,38.5-.9,7.43,1.5,14.86,2.7,22.44,3.08,5.33.37,10.73,0,15.84-1.73,6.98-2.4,12.98-6.9,19.96-9.3,11.56-4.06,24.24-4.73,36.4-3,13.35,2.1,26.64,4.65,39.77,8.1,9.08,2.63,18.46,4.65,27.92,4.58,9.08-.23,18.01-1.8,26.87-3.53V16.74c-11.26-1.13-22.29-2.63-33.4-1.05Z"/>
    </g>
  </g>
</svg>