<svg width="1440" height="200" viewBox="0 0 1440 200" fill="none" xmlns="http://www.w3.org/2000/svg">
<g clip-path="url(#clip0_1_533)">
<g clip-path="url(#clip1_1_533)">
<path d="M1440 31H0V109H1440V31Z" fill="#25749e"/>
<path d="M117.598 47.2045C122.401 52.3827 119.249 64.9906 110.919 62.5891C106.041 61.0881 96.21 58.7617 98.6866 51.7823C99.6622 49.681 100.638 46.9043 102.964 46.0037C103.49 45.7035 104.09 45.4784 104.69 45.2532C105.516 42.7017 110.244 43.6022 112.345 44.0525C114.371 44.5778 116.248 45.6285 117.598 47.2045Z" fill="#0f415e"/>
<path d="M174.259 45.2532C181.764 46.3789 184.84 53.0581 182.439 59.9624C180.113 64.7654 172.758 65.8161 168.03 67.1669C160.675 68.893 153.321 71.2945 145.666 70.8442C140.638 70.544 136.585 67.4671 133.133 64.09C127.58 63.2645 135.985 51.257 137.861 49.1557C142.514 43.5272 150.544 43.8273 157.148 44.1275C162.777 44.3527 168.555 44.1275 174.259 45.2532Z" fill="#0f415e"/>
<path d="M177.711 173.583C179.812 177.111 180.488 181.689 179.137 185.591C177.861 189.643 173.884 193.321 169.381 192.495C163.527 191.069 156.698 185.066 157.598 178.537C158.124 174.784 163.302 171.257 166.904 171.032C167.279 169.756 168.78 169.456 169.906 169.381C173.058 169.006 176.21 170.732 177.711 173.583Z" fill="#25749e"/>
<path d="M231.595 158.724C238.424 163.377 236.848 173.133 233.471 179.437C230.769 184.765 224.615 187.392 218.837 186.717C212.158 185.966 205.253 184.015 199.925 179.737C189.794 171.032 196.998 162.251 207.355 159.024C208.405 157.824 210.281 157.749 211.707 157.148C217.561 155.422 226.266 155.272 231.595 158.724Z" fill="#25749e"/>
<path d="M404.803 46.2289C407.955 48.3302 408.405 52.4578 405.478 55.0094C403.002 57.4109 400 59.212 397.148 61.0882C392.12 64.015 386.416 68.4428 380.413 66.1163C378.837 65.5159 377.411 64.7655 375.91 64.015C374.484 63.3396 373.133 62.5891 371.782 61.8387C371.257 61.9887 370.732 61.8386 370.281 61.6135C368.405 60.7129 366.904 59.2871 365.478 57.7861C360.6 52.9831 362.326 44.9531 368.78 42.7017C371.332 41.7261 374.109 41.576 376.81 41.651C381.764 41.651 386.116 41.9512 390.919 42.4765C395.647 42.8518 400.75 43.3021 404.803 46.2289Z" fill="#25749e"/>
<path d="M601.726 182.214C604.353 189.118 597.523 193.546 592.045 195.797C585.066 198.574 576.435 201.351 569.006 199.25C563.677 197.448 558.874 194.296 554.446 190.844C549.794 187.242 547.467 184.39 551.895 179.212C553.471 174.184 564.353 170.732 569.081 169.156C575.835 166.754 581.689 166.829 588.218 169.906C593.696 172.533 599.174 176.51 601.726 182.214Z" fill="#25749e"/>
<path d="M797.223 175.159C796.773 179.587 792.946 182.964 789.418 185.291C784.315 188.143 778.311 190.994 772.383 189.644C767.054 188.518 762.101 183.039 763.902 177.411C764.278 176.36 764.878 175.46 765.628 174.634C766.379 172.383 767.805 170.356 769.606 168.78C774.259 164.653 781.839 166.079 787.392 167.355C791.069 168.33 797.073 170.807 797.223 175.159Z" fill="#25749e"/>
<path d="M832.72 175.685C836.323 180.713 831.895 184.765 827.392 186.942C824.165 188.593 820.413 190.469 816.66 189.493C811.932 187.842 805.703 178.762 809.456 174.034C811.407 171.632 814.709 171.032 817.486 170.206C818.762 169.156 820.788 169.831 822.214 170.056C826.041 171.257 830.169 172.608 832.72 175.685Z" fill="#25749e"/>
<path d="M1016.89 173.433C1033.17 184.24 1015.46 191.595 1003.75 189.719C999.099 188.968 993.621 189.043 989.568 186.492C985.741 183.865 981.388 178.236 982.514 173.358C981.463 172.308 982.364 170.356 983.865 170.432C986.717 169.831 989.418 168.63 992.195 167.58C997.073 165.253 1002.18 166.604 1006.9 168.555C1010.36 169.906 1013.73 171.557 1016.89 173.433Z" fill="#25749e"/>
<path d="M1338.39 36.0225C1339.59 41.3508 1339.96 47.8048 1334.93 51.182C1329.31 54.7092 1322.25 53.4334 1315.95 53.7335C1310.02 54.1088 1305.59 58.6116 1300.26 60.788C1293.43 63.7148 1285.85 64.1651 1278.5 63.9399C1271.97 63.5647 1262.89 60.938 1258.39 56.06C1256.66 54.1838 1257.64 52.7579 1258.69 50.8067C1258.91 49.0056 1260.19 47.5047 1261.31 46.1538C1261.69 45.6285 1261.99 44.878 1262.66 44.6529C1265.07 42.1763 1267.69 39.9249 1270.32 37.6735C1283.98 25.8911 1284.43 18.8367 1304.47 17.636C1314.45 17.5609 1327.2 15.7598 1334.11 24.6904C1336.44 28.0675 1337.56 32.12 1338.39 36.0225Z" fill="#0f415e"/>
<path d="M1385.67 35.4972C1391.59 38.1989 1398.35 43.4521 1397.82 50.7317C1396.92 56.2852 1390.09 56.8855 1385.82 58.6116C1380.71 60.1125 1375.68 62.2139 1370.28 62.2889C1362.55 62.5141 1356.55 53.7336 1359.17 46.6041C1360.38 43.6022 1362.25 40.9005 1363.9 38.1238C1365.33 36.2476 1369.08 28.6679 1371.86 31.3696C1376.74 30.469 1381.24 33.7711 1385.67 35.4972Z" fill="#0f415e"/>
<path d="M1407.28 67.6172C1401.35 68.4427 1395.5 69.7935 1389.57 70.9192C1383.26 72.2701 1377.04 73.771 1370.73 75.0468C1366.6 75.9474 1362.4 76.5478 1358.12 76.3226C1344.92 75.5721 1332.16 71.7448 1319.02 70.1688C1308.74 69.7185 1298.76 72.6453 1288.56 73.3207C1279.85 73.9211 1271.44 71.2194 1263.19 69.0431C1254.03 66.7166 1245.33 63.2645 1236.55 59.9624C1224.62 55.9099 1212.23 52.3827 1199.55 51.9324C1186.72 52.0074 1175.08 57.9361 1164.2 64.165C1160.9 65.8911 1157.22 66.5665 1153.55 66.1913C1148.97 65.8911 1144.47 65.3658 1139.96 64.9155C1131.48 63.9399 1122.85 63.4145 1114.52 65.8161C1110.32 67.0168 1106.27 68.5928 1101.99 69.4183C1094.26 70.9192 1086.68 68.1425 1079.1 67.317C1070.77 66.8667 1062.81 69.9436 1055.01 72.4952C1050.51 74.0712 1045.63 75.6472 1040.75 75.5721C1025.59 74.7466 1010.88 70.469 996.323 66.2663C988.968 64.3902 981.538 62.8892 974.109 61.3883C963.527 59.0618 952.57 57.3358 941.764 59.5121C938.311 60.1875 935.009 61.3132 931.932 62.8892C925.854 65.8161 921.051 70.6941 915.497 74.3714C907.167 79.6997 897.561 83.6022 887.505 82.7016C880.675 82.1763 874.146 79.9249 867.392 78.9493C863.415 78.3489 859.437 78.1988 855.385 77.8986C846.979 77.7485 839.4 74.8217 831.069 74.5215C809.456 75.1969 790.994 87.5046 768.93 79.3245C760.901 76.1725 753.171 72.12 744.54 70.544C736.885 69.1181 729.156 66.4915 721.276 67.6172C717.598 68.1425 714.221 69.6434 710.619 70.3939C703.94 71.5196 697.111 72.12 690.431 73.2457C688.255 73.696 680.45 74.5215 677.373 76.5478C673.921 76.1725 670.469 75.8723 667.017 75.6472C656.06 74.9718 645.028 74.0712 634.146 72.4202C622.214 70.7691 610.281 68.0675 598.199 67.9174C593.396 67.9924 588.668 68.968 583.94 69.7935C576.961 71.0693 569.981 72.4202 563.002 73.4708C550.169 75.5722 537.486 75.0468 524.503 73.696C515.497 72.7954 506.867 70.2438 498.161 67.8423C482.852 63.7147 466.792 61.3883 450.957 63.4896C441.126 64.4652 431.445 66.4915 421.839 68.8179C413.583 70.6191 405.478 73.3207 397.148 74.5215C384.465 76.0224 371.557 74.2964 359.4 70.7691C353.021 68.7429 346.567 66.7166 339.887 66.5665C333.058 66.3414 326.229 66.7917 319.475 67.4671C313.171 68.1425 306.942 69.3433 300.638 70.0937C291.707 71.1444 282.777 71.5196 273.771 71.3695C257.561 71.2194 241.426 69.1181 225.216 68.1425C218.537 67.6172 211.782 67.317 205.178 68.2926C191.445 70.1688 177.861 73.1706 164.052 74.0712C149.118 74.7466 134.109 73.3207 119.249 72.195C110.544 71.2194 101.839 70.3189 93.1331 70.6191C87.2795 70.8442 81.5009 71.4446 75.7973 72.4202C68.8179 73.5459 61.9887 75.7222 54.9343 76.8479C45.7786 77.9737 36.848 77.0731 27.6172 76.1725C18.0112 75.1219 8.85547 71.9699 -0.525391 69.6434V174.409C5.02808 176.51 10.5065 178.536 16.2851 179.737C29.5684 182.964 43.0018 178.011 55.3095 173.133C63.9399 169.306 72.6453 165.703 81.9512 163.977C91.9324 162.176 102.139 160.976 112.27 160.825C123.752 160.675 135.084 162.852 146.567 163.002C157.373 162.552 166.754 154.296 176.06 149.343C181.538 146.191 187.242 143.415 192.946 140.713C196.773 138.912 200.675 137.336 204.878 136.51C210.582 135.234 216.51 135.91 222.289 137.036C235.197 139.512 246.904 145.891 259.362 149.794C267.392 152.345 275.647 154.146 283.902 155.722C288.705 156.623 293.583 157.448 298.537 157.298C306.341 157.148 314.146 155.797 321.801 154.446C328.555 153.396 335.61 151.294 342.289 153.846C367.129 164.052 375.084 163.077 400.075 154.747C405.553 153.096 411.182 151.895 416.81 151.144C422.289 150.544 427.917 149.869 433.396 150.919C438.874 151.97 444.128 153.921 449.531 155.497C458.762 158.199 468.143 160.375 477.673 161.876C499.137 165.478 520.75 161.351 542.064 158.724C554.672 157.673 567.43 156.848 580.037 158.424C592.795 160.675 605.403 164.127 617.636 168.255C625.216 170.957 632.645 173.884 640.45 175.91C648.48 178.161 656.66 179.437 664.916 180.413C672.12 181.388 679.4 182.064 686.679 181.313C694.334 180.713 701.989 179.287 709.343 176.961C716.848 174.634 723.977 171.257 731.182 168.18C744.39 162.552 758.049 157.448 772.308 155.797C782.814 155.497 793.321 156.173 803.752 157.749C820.413 160.375 836.998 165.403 854.184 165.103C866.567 165.403 877.899 159.625 889.831 157.223C894.934 156.173 900.188 156.022 905.291 156.998C911.144 158.274 916.773 160.525 922.702 161.726C932.683 163.752 943.039 165.178 953.246 163.827C959.925 162.852 966.154 160.225 972.683 158.799C984.315 156.398 996.773 154.597 1008.18 158.724C1015.23 161.351 1021.61 165.403 1028.29 168.78C1032.72 171.032 1037.22 173.208 1041.73 175.309C1050.81 179.362 1059.51 184.69 1069.57 186.191C1080.83 188.067 1092.38 186.341 1103.34 183.34C1114.3 180.263 1124.5 174.709 1135.76 172.833C1142.66 171.632 1149.49 173.658 1156.02 175.76C1164.05 178.386 1172.46 179.737 1180.86 179.737C1192.05 179.737 1202.25 174.784 1212.98 172.233C1225.67 169.981 1238.8 168.555 1251.48 171.332C1258.91 172.833 1266.34 174.034 1273.92 174.409C1279.25 174.784 1284.65 174.409 1289.76 172.683C1296.74 170.281 1302.74 165.779 1309.72 163.377C1321.28 159.324 1333.96 158.649 1346.12 160.375C1359.47 162.476 1372.76 165.028 1385.89 168.48C1394.97 171.107 1404.35 173.133 1413.81 173.058C1422.89 172.833 1431.82 171.257 1440.68 169.531V68.6678C1429.42 67.5421 1418.39 66.0412 1407.28 67.6172Z" fill="#25749e"/>
</g>
</g>
<defs>
<clipPath id="clip0_1_533">
<rect width="1440" height="200" fill="white"/>
</clipPath>
<clipPath id="clip1_1_533">
<rect width="1440.9" height="200" fill="white" transform="translate(-0.450317)"/>
</clipPath>
</defs>
</svg>
