<svg width="1436" height="346" viewBox="0 0 1436 346" fill="none" xmlns="http://www.w3.org/2000/svg">
<path d="M1435.98 0C1389.4 21.8997 1354.91 57.8992 1296.63 59.1741C1282.61 59.4741 1268.51 57.5992 1254.63 58.7992C1219.98 61.7991 1198.01 82.3488 1167.26 92.3987C1096.53 115.498 1010.66 77.5489 930.712 83.6238C886.087 87.0737 844.463 104.323 799.913 100.724C775.839 98.7736 754.464 90.9737 732.264 85.1238C666.265 67.724 587.891 68.099 522.342 86.0988C498.943 92.5487 475.618 101.249 449.893 100.424C417.044 99.3736 389.744 82.7238 356.82 82.1238C286.471 82.1238 255.496 121.573 190.847 85.1988C147.873 60.9741 127.773 32.0245 61.1741 28.4246C34.2495 26.8496 12.8748 29.1746 -4 34.3495V346.045H1435.98V0Z" fill="#0f415e"/>
</svg>
